<?xml version="1.0" encoding="UTF-8"?>
<svg xmlns="http://www.w3.org/2000/svg" xmlns:xlink="http://www.w3.org/1999/xlink" width="684pt" height="432pt" viewBox="0 0 684 432" version="1.1">
<defs>
<clipPath id="clip1">
  <path d="M 561 207 L 576 207 L 576 214 L 561 214 Z M 561 207 "/>
</clipPath>
<clipPath id="clip2">
  <path d="M 108 206 L 576 206 L 576 208 L 108 208 Z M 108 206 "/>
</clipPath>
</defs>
<g id="surface825">
<path style=" stroke:none;fill-rule:evenodd;fill:rgb(74.509804%,74.509804%,74.509804%);fill-opacity:1;" d="M 574.460938 56.347656 L 574.460938 57.601562 L 574.03125 57.601562 L 574.03125 56.347656 L 572.789062 56.347656 L 572.789062 55.917969 L 574.03125 55.917969 L 574.03125 54.664062 L 574.460938 54.664062 L 574.460938 55.917969 L 575.703125 55.917969 L 575.703125 56.347656 Z M 574.460938 56.347656 "/>
<path style=" stroke:none;fill-rule:evenodd;fill:rgb(74.509804%,74.509804%,74.509804%);fill-opacity:1;" d="M 574.460938 358.21875 L 574.460938 359.472656 L 574.03125 359.472656 L 574.03125 358.21875 L 572.789062 358.21875 L 572.789062 357.789062 L 574.03125 357.789062 L 574.03125 356.539062 L 574.460938 356.539062 L 574.460938 357.789062 L 575.703125 357.789062 L 575.703125 358.21875 Z M 574.460938 358.21875 "/>
<path style=" stroke:none;fill-rule:evenodd;fill:rgb(49.411765%,80.392157%,73.333333%);fill-opacity:1;" d="M 387.394531 206.148438 L 404.242188 206.148438 L 404.242188 200.480469 L 387.394531 200.480469 Z M 387.394531 206.148438 "/>
<path style=" stroke:none;fill-rule:evenodd;fill:rgb(49.411765%,80.392157%,73.333333%);fill-opacity:1;" d="M 298.007812 206.148438 L 314.855469 206.148438 L 314.855469 200.480469 L 298.007812 200.480469 Z M 298.007812 206.148438 "/>
<path style=" stroke:none;fill-rule:evenodd;fill:rgb(49.411765%,80.392157%,73.333333%);fill-opacity:1;" d="M 324.214844 198.78125 L 341.0625 198.78125 L 341.0625 193.113281 L 324.214844 193.113281 Z M 324.214844 198.78125 "/>
<path style=" stroke:none;fill-rule:evenodd;fill:rgb(49.411765%,80.392157%,73.333333%);fill-opacity:1;" d="M 356.039062 206.148438 L 372.886719 206.148438 L 372.886719 200.480469 L 356.039062 200.480469 Z M 356.039062 206.148438 "/>
<path style=" stroke:none;fill-rule:evenodd;fill:rgb(49.411765%,80.392157%,73.333333%);fill-opacity:1;" d="M 403.777344 198.78125 L 420.625 198.78125 L 420.625 193.113281 L 403.777344 193.113281 Z M 403.777344 198.78125 "/>
<path style=" stroke:none;fill-rule:evenodd;fill:rgb(49.411765%,80.392157%,73.333333%);fill-opacity:1;" d="M 350.425781 191.410156 L 367.273438 191.410156 L 367.273438 185.742188 L 350.425781 185.742188 Z M 350.425781 191.410156 "/>
<path style=" stroke:none;fill-rule:evenodd;fill:rgb(49.411765%,80.392157%,73.333333%);fill-opacity:1;" d="M 369.144531 198.78125 L 385.992188 198.78125 L 385.992188 193.113281 L 369.144531 193.113281 Z M 369.144531 198.78125 "/>
<path style=" stroke:none;fill-rule:evenodd;fill:rgb(49.411765%,80.392157%,73.333333%);fill-opacity:1;" d="M 342.46875 184.039062 L 359.316406 184.039062 L 359.316406 178.371094 L 342.46875 178.371094 Z M 342.46875 184.039062 "/>
<path style=" stroke:none;fill-rule:evenodd;fill:rgb(49.411765%,80.392157%,73.333333%);fill-opacity:1;" d="M 539.496094 206.148438 L 556.34375 206.148438 L 556.34375 200.480469 L 539.496094 200.480469 Z M 539.496094 206.148438 "/>
<path style=" stroke:none;fill-rule:evenodd;fill:rgb(49.411765%,80.392157%,73.333333%);fill-opacity:1;" d="M 380.84375 191.410156 L 397.691406 191.410156 L 397.691406 185.742188 L 380.84375 185.742188 Z M 380.84375 191.410156 "/>
<path style=" stroke:none;fill-rule:evenodd;fill:rgb(49.411765%,80.392157%,73.333333%);fill-opacity:1;" d="M 400.03125 184.039062 L 416.878906 184.039062 L 416.878906 178.371094 L 400.03125 178.371094 Z M 400.03125 184.039062 "/>
<path style=" stroke:none;fill-rule:evenodd;fill:rgb(49.411765%,80.392157%,73.333333%);fill-opacity:1;" d="M 407.050781 176.667969 L 423.898438 176.667969 L 423.898438 171 L 407.050781 171 Z M 407.050781 176.667969 "/>
<path style=" stroke:none;fill-rule:evenodd;fill:rgb(49.411765%,80.392157%,73.333333%);fill-opacity:1;" d="M 303.15625 191.410156 L 320.003906 191.410156 L 320.003906 185.742188 L 303.15625 185.742188 Z M 303.15625 191.410156 "/>
<path style=" stroke:none;fill-rule:evenodd;fill:rgb(49.411765%,80.392157%,73.333333%);fill-opacity:1;" d="M 339.191406 176.667969 L 356.039062 176.667969 L 356.039062 171 L 339.191406 171 Z M 339.191406 176.667969 "/>
<path style=" stroke:none;fill-rule:evenodd;fill:rgb(49.411765%,80.392157%,73.333333%);fill-opacity:1;" d="M 354.167969 169.300781 L 371.015625 169.300781 L 371.015625 163.632812 L 354.167969 163.632812 Z M 354.167969 169.300781 "/>
<path style=" stroke:none;fill-rule:evenodd;fill:rgb(49.411765%,80.392157%,73.333333%);fill-opacity:1;" d="M 334.511719 161.929688 L 351.359375 161.929688 L 351.359375 156.261719 L 334.511719 156.261719 Z M 334.511719 161.929688 "/>
<path style=" stroke:none;fill-rule:evenodd;fill:rgb(49.411765%,80.392157%,73.333333%);fill-opacity:1;" d="M 364.933594 161.929688 L 381.78125 161.929688 L 381.78125 156.261719 L 364.933594 156.261719 Z M 364.933594 161.929688 "/>
<path style=" stroke:none;fill-rule:evenodd;fill:rgb(49.411765%,80.392157%,73.333333%);fill-opacity:1;" d="M 401.902344 169.300781 L 418.75 169.300781 L 418.75 163.632812 L 401.902344 163.632812 Z M 401.902344 169.300781 "/>
<path style=" stroke:none;fill-rule:evenodd;fill:rgb(49.411765%,80.392157%,73.333333%);fill-opacity:1;" d="M 287.242188 198.78125 L 304.089844 198.78125 L 304.089844 193.113281 L 287.242188 193.113281 Z M 287.242188 198.78125 "/>
<path style=" stroke:none;fill-rule:evenodd;fill:rgb(49.411765%,80.392157%,73.333333%);fill-opacity:1;" d="M 332.640625 154.558594 L 349.488281 154.558594 L 349.488281 148.890625 L 332.640625 148.890625 Z M 332.640625 154.558594 "/>
<path style=" stroke:none;fill-rule:evenodd;fill:rgb(49.411765%,80.392157%,73.333333%);fill-opacity:1;" d="M 398.160156 161.929688 L 415.007812 161.929688 L 415.007812 156.261719 L 398.160156 156.261719 Z M 398.160156 161.929688 "/>
<path style=" stroke:none;fill-rule:evenodd;fill:rgb(49.411765%,80.392157%,73.333333%);fill-opacity:1;" d="M 321.40625 169.300781 L 338.253906 169.300781 L 338.253906 163.632812 L 321.40625 163.632812 Z M 321.40625 169.300781 "/>
<path style=" stroke:none;fill-rule:evenodd;fill:rgb(49.411765%,80.392157%,73.333333%);fill-opacity:1;" d="M 444.023438 206.148438 L 460.871094 206.148438 L 460.871094 200.480469 L 444.023438 200.480469 Z M 444.023438 206.148438 "/>
<path style=" stroke:none;fill-rule:evenodd;fill:rgb(49.411765%,80.392157%,73.333333%);fill-opacity:1;" d="M 353.230469 147.1875 L 370.078125 147.1875 L 370.078125 141.519531 L 353.230469 141.519531 Z M 353.230469 147.1875 "/>
<path style=" stroke:none;fill-rule:evenodd;fill:rgb(49.411765%,80.392157%,73.333333%);fill-opacity:1;" d="M 409.390625 191.410156 L 426.238281 191.410156 L 426.238281 185.742188 L 409.390625 185.742188 Z M 409.390625 191.410156 "/>
<path style=" stroke:none;fill-rule:evenodd;fill:rgb(49.411765%,80.392157%,73.333333%);fill-opacity:1;" d="M 355.570312 139.820312 L 372.417969 139.820312 L 372.417969 134.152344 L 355.570312 134.152344 Z M 355.570312 139.820312 "/>
<path style=" stroke:none;fill-rule:evenodd;fill:rgb(49.411765%,80.392157%,73.333333%);fill-opacity:1;" d="M 450.109375 198.78125 L 466.957031 198.78125 L 466.957031 193.113281 L 450.109375 193.113281 Z M 450.109375 198.78125 "/>
<path style=" stroke:none;fill-rule:evenodd;fill:rgb(49.411765%,80.392157%,73.333333%);fill-opacity:1;" d="M 362.59375 154.558594 L 379.441406 154.558594 L 379.441406 148.890625 L 362.59375 148.890625 Z M 362.59375 154.558594 "/>
<path style=" stroke:none;fill-rule:evenodd;fill:rgb(49.411765%,80.392157%,73.333333%);fill-opacity:1;" d="M 334.042969 132.449219 L 350.890625 132.449219 L 350.890625 126.78125 L 334.042969 126.78125 Z M 334.042969 132.449219 "/>
<path style=" stroke:none;fill-rule:evenodd;fill:rgb(49.411765%,80.392157%,73.333333%);fill-opacity:1;" d="M 347.617188 125.078125 L 364.464844 125.078125 L 364.464844 119.410156 L 347.617188 119.410156 Z M 347.617188 125.078125 "/>
<path style=" stroke:none;fill-rule:evenodd;fill:rgb(49.411765%,80.392157%,73.333333%);fill-opacity:1;" d="M 352.765625 117.707031 L 369.613281 117.707031 L 369.613281 112.039062 L 352.765625 112.039062 Z M 352.765625 117.707031 "/>
<path style=" stroke:none;fill-rule:evenodd;fill:rgb(49.411765%,80.392157%,73.333333%);fill-opacity:1;" d="M 353.699219 110.339844 L 370.546875 110.339844 L 370.546875 104.671875 L 353.699219 104.671875 Z M 353.699219 110.339844 "/>
<path style=" stroke:none;fill-rule:evenodd;fill:rgb(49.411765%,80.392157%,73.333333%);fill-opacity:1;" d="M 425.773438 161.929688 L 442.621094 161.929688 L 442.621094 156.261719 L 425.773438 156.261719 Z M 425.773438 161.929688 "/>
<path style=" stroke:none;fill-rule:evenodd;fill:rgb(49.411765%,80.392157%,73.333333%);fill-opacity:1;" d="M 356.507812 102.96875 L 373.355469 102.96875 L 373.355469 97.300781 L 356.507812 97.300781 Z M 356.507812 102.96875 "/>
<path style=" stroke:none;fill-rule:evenodd;fill:rgb(49.411765%,80.392157%,73.333333%);fill-opacity:1;" d="M 355.105469 95.597656 L 371.953125 95.597656 L 371.953125 89.929688 L 355.105469 89.929688 Z M 355.105469 95.597656 "/>
<path style=" stroke:none;fill-rule:evenodd;fill:rgb(49.411765%,80.392157%,73.333333%);fill-opacity:1;" d="M 352.296875 88.226562 L 369.144531 88.226562 L 369.144531 82.558594 L 352.296875 82.558594 Z M 352.296875 88.226562 "/>
<path style=" stroke:none;fill-rule:evenodd;fill:rgb(49.411765%,80.392157%,73.333333%);fill-opacity:1;" d="M 348.085938 80.859375 L 364.933594 80.859375 L 364.933594 75.191406 L 348.085938 75.191406 Z M 348.085938 80.859375 "/>
<path style=" stroke:none;fill-rule:evenodd;fill:rgb(49.411765%,80.392157%,73.333333%);fill-opacity:1;" d="M 375.695312 176.667969 L 392.542969 176.667969 L 392.542969 171 L 375.695312 171 Z M 375.695312 176.667969 "/>
<path style=" stroke:none;fill-rule:evenodd;fill:rgb(49.411765%,80.392157%,73.333333%);fill-opacity:1;" d="M 481.464844 206.148438 L 498.3125 206.148438 L 498.3125 200.480469 L 481.464844 200.480469 Z M 481.464844 206.148438 "/>
<path style=" stroke:none;fill-rule:evenodd;fill:rgb(49.411765%,80.392157%,73.333333%);fill-opacity:1;" d="M 426.707031 184.039062 L 443.554688 184.039062 L 443.554688 178.371094 L 426.707031 178.371094 Z M 426.707031 184.039062 "/>
<path style=" stroke:none;fill-rule:evenodd;fill:rgb(49.411765%,80.392157%,73.333333%);fill-opacity:1;" d="M 410.796875 154.558594 L 427.644531 154.558594 L 427.644531 148.890625 L 410.796875 148.890625 Z M 410.796875 154.558594 "/>
<path style=" stroke:none;fill-rule:evenodd;fill:rgb(49.411765%,80.392157%,73.333333%);fill-opacity:1;" d="M 337.789062 73.488281 L 354.636719 73.488281 L 354.636719 67.820312 L 337.789062 67.820312 Z M 337.789062 73.488281 "/>
<path style=" stroke:none;fill-rule:evenodd;fill:rgb(49.411765%,80.392157%,73.333333%);fill-opacity:1;" d="M 368.207031 132.449219 L 385.054688 132.449219 L 385.054688 126.78125 L 368.207031 126.78125 Z M 368.207031 132.449219 "/>
<path style=" stroke:none;fill-rule:evenodd;fill:rgb(49.411765%,80.392157%,73.333333%);fill-opacity:1;" d="M 374.761719 125.078125 L 391.609375 125.078125 L 391.609375 119.410156 L 374.761719 119.410156 Z M 374.761719 125.078125 "/>
<path style=" stroke:none;fill-rule:evenodd;fill:rgb(49.411765%,80.392157%,73.333333%);fill-opacity:1;" d="M 391.609375 147.1875 L 408.457031 147.1875 L 408.457031 141.519531 L 391.609375 141.519531 Z M 391.609375 147.1875 "/>
<path style=" stroke:none;fill-rule:evenodd;fill:rgb(49.411765%,80.392157%,73.333333%);fill-opacity:1;" d="M 411.730469 139.820312 L 428.578125 139.820312 L 428.578125 134.152344 L 411.730469 134.152344 Z M 411.730469 139.820312 "/>
<path style=" stroke:none;fill-rule:evenodd;fill:rgb(49.411765%,80.392157%,73.333333%);fill-opacity:1;" d="M 340.128906 66.117188 L 356.976562 66.117188 L 356.976562 60.449219 L 340.128906 60.449219 Z M 340.128906 66.117188 "/>
<path style=" stroke:none;fill-rule:evenodd;fill:rgb(49.411765%,80.392157%,73.333333%);fill-opacity:1;" d="M 383.183594 139.820312 L 400.03125 139.820312 L 400.03125 134.152344 L 383.183594 134.152344 Z M 383.183594 139.820312 "/>
<path style=" stroke:none;fill-rule:evenodd;fill:rgb(49.411765%,80.392157%,73.333333%);fill-opacity:1;" d="M 381.78125 117.707031 L 398.628906 117.707031 L 398.628906 112.039062 L 381.78125 112.039062 Z M 381.78125 117.707031 "/>
<path style=" stroke:none;fill-rule:evenodd;fill:rgb(49.411765%,80.392157%,73.333333%);fill-opacity:1;" d="M 366.804688 73.488281 L 383.652344 73.488281 L 383.652344 67.820312 L 366.804688 67.820312 Z M 366.804688 73.488281 "/>
<path style=" stroke:none;fill-rule:evenodd;fill:rgb(49.411765%,80.392157%,73.333333%);fill-opacity:1;" d="M 375.226562 80.859375 L 392.074219 80.859375 L 392.074219 75.191406 L 375.226562 75.191406 Z M 375.226562 80.859375 "/>
<path style=" stroke:none;fill-rule:evenodd;fill:rgb(49.411765%,80.392157%,73.333333%);fill-opacity:1;" d="M 476.316406 191.410156 L 493.164062 191.410156 L 493.164062 185.742188 L 476.316406 185.742188 Z M 476.316406 191.410156 "/>
<path style=" stroke:none;fill-rule:evenodd;fill:rgb(49.411765%,80.392157%,73.333333%);fill-opacity:1;" d="M 313.453125 184.039062 L 330.300781 184.039062 L 330.300781 178.371094 L 313.453125 178.371094 Z M 313.453125 184.039062 "/>
<path style=" stroke:none;fill-rule:evenodd;fill:rgb(49.411765%,80.392157%,73.333333%);fill-opacity:1;" d="M 385.523438 110.339844 L 402.371094 110.339844 L 402.371094 104.671875 L 385.523438 104.671875 Z M 385.523438 110.339844 "/>
<path style=" stroke:none;fill-rule:evenodd;fill:rgb(49.411765%,80.392157%,73.333333%);fill-opacity:1;" d="M 449.640625 191.410156 L 466.488281 191.410156 L 466.488281 185.742188 L 449.640625 185.742188 Z M 449.640625 191.410156 "/>
<path style=" stroke:none;fill-rule:evenodd;fill:rgb(49.411765%,80.392157%,73.333333%);fill-opacity:1;" d="M 368.675781 66.117188 L 385.523438 66.117188 L 385.523438 60.449219 L 368.675781 60.449219 Z M 368.675781 66.117188 "/>
<path style=" stroke:none;fill-rule:evenodd;fill:rgb(49.411765%,80.392157%,73.333333%);fill-opacity:1;" d="M 535.753906 198.78125 L 552.601562 198.78125 L 552.601562 193.113281 L 535.753906 193.113281 Z M 535.753906 198.78125 "/>
<path style=" stroke:none;fill-rule:evenodd;fill:rgb(49.411765%,80.392157%,73.333333%);fill-opacity:1;" d="M 419.21875 147.1875 L 436.066406 147.1875 L 436.066406 141.519531 L 419.21875 141.519531 Z M 419.21875 147.1875 "/>
<path style=" stroke:none;fill-rule:evenodd;fill:rgb(49.411765%,80.392157%,73.333333%);fill-opacity:1;" d="M 392.074219 102.96875 L 408.921875 102.96875 L 408.921875 97.300781 L 392.074219 97.300781 Z M 392.074219 102.96875 "/>
<path style=" stroke:none;fill-rule:evenodd;fill:rgb(49.411765%,80.392157%,73.333333%);fill-opacity:1;" d="M 396.757812 132.449219 L 413.605469 132.449219 L 413.605469 126.78125 L 396.757812 126.78125 Z M 396.757812 132.449219 "/>
<path style=" stroke:none;fill-rule:evenodd;fill:rgb(49.411765%,80.392157%,73.333333%);fill-opacity:1;" d="M 371.484375 184.039062 L 388.332031 184.039062 L 388.332031 178.371094 L 371.484375 178.371094 Z M 371.484375 184.039062 "/>
<path style=" stroke:none;fill-rule:evenodd;fill:rgb(49.411765%,80.392157%,73.333333%);fill-opacity:1;" d="M 473.976562 184.039062 L 490.824219 184.039062 L 490.824219 178.371094 L 473.976562 178.371094 Z M 473.976562 184.039062 "/>
<path style=" stroke:none;fill-rule:evenodd;fill:rgb(49.411765%,80.392157%,73.333333%);fill-opacity:1;" d="M 399.5625 95.597656 L 416.410156 95.597656 L 416.410156 89.929688 L 399.5625 89.929688 Z M 399.5625 95.597656 "/>
<path style=" stroke:none;fill-rule:evenodd;fill:rgb(49.411765%,80.392157%,73.333333%);fill-opacity:1;" d="M 387.863281 88.226562 L 404.710938 88.226562 L 404.710938 82.558594 L 387.863281 82.558594 Z M 387.863281 88.226562 "/>
<path style=" stroke:none;fill-rule:evenodd;fill:rgb(49.411765%,80.392157%,73.333333%);fill-opacity:1;" d="M 327.960938 206.148438 L 344.808594 206.148438 L 344.808594 200.480469 L 327.960938 200.480469 Z M 327.960938 206.148438 "/>
<path style=" stroke:none;fill-rule:evenodd;fill:rgb(49.411765%,80.392157%,73.333333%);fill-opacity:1;" d="M 439.34375 176.667969 L 456.191406 176.667969 L 456.191406 171 L 439.34375 171 Z M 439.34375 176.667969 "/>
<path style=" stroke:none;fill-rule:evenodd;fill:rgb(49.411765%,80.392157%,73.333333%);fill-opacity:1;" d="M 405.648438 125.078125 L 422.496094 125.078125 L 422.496094 119.410156 L 405.648438 119.410156 Z M 405.648438 125.078125 "/>
<path style=" stroke:none;fill-rule:evenodd;fill:rgb(49.411765%,80.392157%,73.333333%);fill-opacity:1;" d="M 282.5625 184.039062 L 299.410156 184.039062 L 299.410156 178.371094 L 282.5625 178.371094 Z M 282.5625 184.039062 "/>
<path style=" stroke:none;fill-rule:evenodd;fill:rgb(49.411765%,80.392157%,73.333333%);fill-opacity:1;" d="M 393.949219 73.488281 L 410.796875 73.488281 L 410.796875 67.820312 L 393.949219 67.820312 Z M 393.949219 73.488281 "/>
<path style=" stroke:none;fill-rule:evenodd;fill:rgb(49.411765%,80.392157%,73.333333%);fill-opacity:1;" d="M 318.601562 147.1875 L 335.449219 147.1875 L 335.449219 141.519531 L 318.601562 141.519531 Z M 318.601562 147.1875 "/>
<path style=" stroke:none;fill-rule:evenodd;fill:rgb(49.411765%,80.392157%,73.333333%);fill-opacity:1;" d="M 421.558594 117.707031 L 438.40625 117.707031 L 438.40625 112.039062 L 421.558594 112.039062 Z M 421.558594 117.707031 "/>
<path style=" stroke:none;fill-rule:evenodd;fill:rgb(49.411765%,80.392157%,73.333333%);fill-opacity:1;" d="M 213.769531 206.148438 L 230.617188 206.148438 L 230.617188 200.480469 L 213.769531 200.480469 Z M 213.769531 206.148438 "/>
<path style=" stroke:none;fill-rule:evenodd;fill:rgb(49.411765%,80.392157%,73.333333%);fill-opacity:1;" d="M 319.535156 139.820312 L 336.382812 139.820312 L 336.382812 134.152344 L 319.535156 134.152344 Z M 319.535156 139.820312 "/>
<path style=" stroke:none;fill-rule:evenodd;fill:rgb(49.411765%,80.392157%,73.333333%);fill-opacity:1;" d="M 160.882812 206.148438 L 177.730469 206.148438 L 177.730469 200.480469 L 160.882812 200.480469 Z M 160.882812 206.148438 "/>
<path style=" stroke:none;fill-rule:evenodd;fill:rgb(49.411765%,80.392157%,73.333333%);fill-opacity:1;" d="M 418.753906 110.339844 L 435.601562 110.339844 L 435.601562 104.671875 L 418.753906 104.671875 Z M 418.753906 110.339844 "/>
<path style=" stroke:none;fill-rule:evenodd;fill:rgb(21.568627%,65.490196%,85.882353%);fill-opacity:1;" d="M 318.132812 213.519531 L 334.980469 213.519531 L 334.980469 207.851562 L 318.132812 207.851562 Z M 318.132812 213.519531 "/>
<path style=" stroke:none;fill-rule:evenodd;fill:rgb(21.568627%,65.490196%,85.882353%);fill-opacity:1;" d="M 339.191406 220.890625 L 356.039062 220.890625 L 356.039062 215.222656 L 339.191406 215.222656 Z M 339.191406 220.890625 "/>
<path style=" stroke:none;fill-rule:evenodd;fill:rgb(21.568627%,65.490196%,85.882353%);fill-opacity:1;" d="M 461.808594 213.519531 L 478.65625 213.519531 L 478.65625 207.851562 L 461.808594 207.851562 Z M 461.808594 213.519531 "/>
<path style=" stroke:none;fill-rule:evenodd;fill:rgb(21.568627%,65.490196%,85.882353%);fill-opacity:1;" d="M 298.476562 220.890625 L 315.324219 220.890625 L 315.324219 215.222656 L 298.476562 215.222656 Z M 298.476562 220.890625 "/>
<path style=" stroke:none;fill-rule:evenodd;fill:rgb(21.568627%,65.490196%,85.882353%);fill-opacity:1;" d="M 327.960938 228.261719 L 344.808594 228.261719 L 344.808594 222.59375 L 327.960938 222.59375 Z M 327.960938 228.261719 "/>
<path style=" stroke:none;fill-rule:evenodd;fill:rgb(21.568627%,65.490196%,85.882353%);fill-opacity:1;" d="M 322.8125 235.628906 L 339.660156 235.628906 L 339.660156 229.960938 L 322.8125 229.960938 Z M 322.8125 235.628906 "/>
<path style=" stroke:none;fill-rule:evenodd;fill:rgb(21.568627%,65.490196%,85.882353%);fill-opacity:1;" d="M 345.277344 213.519531 L 362.125 213.519531 L 362.125 207.851562 L 345.277344 207.851562 Z M 345.277344 213.519531 "/>
<path style=" stroke:none;fill-rule:evenodd;fill:rgb(21.568627%,65.490196%,85.882353%);fill-opacity:1;" d="M 355.570312 228.261719 L 372.417969 228.261719 L 372.417969 222.59375 L 355.570312 222.59375 Z M 355.570312 228.261719 "/>
<path style=" stroke:none;fill-rule:evenodd;fill:rgb(21.568627%,65.490196%,85.882353%);fill-opacity:1;" d="M 280.222656 213.519531 L 297.070312 213.519531 L 297.070312 207.851562 L 280.222656 207.851562 Z M 280.222656 213.519531 "/>
<path style=" stroke:none;fill-rule:evenodd;fill:rgb(21.568627%,65.490196%,85.882353%);fill-opacity:1;" d="M 369.613281 220.890625 L 386.460938 220.890625 L 386.460938 215.222656 L 369.613281 215.222656 Z M 369.613281 220.890625 "/>
<path style=" stroke:none;fill-rule:evenodd;fill:rgb(21.568627%,65.490196%,85.882353%);fill-opacity:1;" d="M 339.660156 243 L 356.507812 243 L 356.507812 237.332031 L 339.660156 237.332031 Z M 339.660156 243 "/>
<path style=" stroke:none;fill-rule:evenodd;fill:rgb(21.568627%,65.490196%,85.882353%);fill-opacity:1;" d="M 315.792969 250.371094 L 332.640625 250.371094 L 332.640625 244.703125 L 315.792969 244.703125 Z M 315.792969 250.371094 "/>
<path style=" stroke:none;fill-rule:evenodd;fill:rgb(21.568627%,65.490196%,85.882353%);fill-opacity:1;" d="M 320.003906 257.738281 L 336.851562 257.738281 L 336.851562 252.070312 L 320.003906 252.070312 Z M 320.003906 257.738281 "/>
<path style=" stroke:none;fill-rule:evenodd;fill:rgb(21.568627%,65.490196%,85.882353%);fill-opacity:1;" d="M 330.300781 265.109375 L 347.148438 265.109375 L 347.148438 259.441406 L 330.300781 259.441406 Z M 330.300781 265.109375 "/>
<path style=" stroke:none;fill-rule:evenodd;fill:rgb(21.568627%,65.490196%,85.882353%);fill-opacity:1;" d="M 318.601562 272.480469 L 335.449219 272.480469 L 335.449219 266.8125 L 318.601562 266.8125 Z M 318.601562 272.480469 "/>
<path style=" stroke:none;fill-rule:evenodd;fill:rgb(21.568627%,65.490196%,85.882353%);fill-opacity:1;" d="M 323.746094 279.851562 L 340.59375 279.851562 L 340.59375 274.183594 L 323.746094 274.183594 Z M 323.746094 279.851562 "/>
<path style=" stroke:none;fill-rule:evenodd;fill:rgb(21.568627%,65.490196%,85.882353%);fill-opacity:1;" d="M 333.574219 287.21875 L 350.421875 287.21875 L 350.421875 281.550781 L 333.574219 281.550781 Z M 333.574219 287.21875 "/>
<path style=" stroke:none;fill-rule:evenodd;fill:rgb(21.568627%,65.490196%,85.882353%);fill-opacity:1;" d="M 343.871094 250.371094 L 360.71875 250.371094 L 360.71875 244.703125 L 343.871094 244.703125 Z M 343.871094 250.371094 "/>
<path style=" stroke:none;fill-rule:evenodd;fill:rgb(21.568627%,65.490196%,85.882353%);fill-opacity:1;" d="M 276.011719 228.261719 L 292.859375 228.261719 L 292.859375 222.59375 L 276.011719 222.59375 Z M 276.011719 228.261719 "/>
<path style=" stroke:none;fill-rule:evenodd;fill:rgb(21.568627%,65.490196%,85.882353%);fill-opacity:1;" d="M 241.378906 213.519531 L 258.226562 213.519531 L 258.226562 207.851562 L 241.378906 207.851562 Z M 241.378906 213.519531 "/>
<path style=" stroke:none;fill-rule:evenodd;fill:rgb(21.568627%,65.490196%,85.882353%);fill-opacity:1;" d="M 399.097656 213.519531 L 415.945312 213.519531 L 415.945312 207.851562 L 399.097656 207.851562 Z M 399.097656 213.519531 "/>
<path style=" stroke:none;fill-rule:evenodd;fill:rgb(21.568627%,65.490196%,85.882353%);fill-opacity:1;" d="M 337.320312 294.589844 L 354.167969 294.589844 L 354.167969 288.921875 L 337.320312 288.921875 Z M 337.320312 294.589844 "/>
<path style=" stroke:none;fill-rule:evenodd;fill:rgb(21.568627%,65.490196%,85.882353%);fill-opacity:1;" d="M 349.488281 235.628906 L 366.335938 235.628906 L 366.335938 229.960938 L 349.488281 229.960938 Z M 349.488281 235.628906 "/>
<path style=" stroke:none;fill-rule:evenodd;fill:rgb(21.568627%,65.490196%,85.882353%);fill-opacity:1;" d="M 305.496094 243 L 322.34375 243 L 322.34375 237.332031 L 305.496094 237.332031 Z M 305.496094 243 "/>
<path style=" stroke:none;fill-rule:evenodd;fill:rgb(21.568627%,65.490196%,85.882353%);fill-opacity:1;" d="M 384.121094 228.261719 L 400.96875 228.261719 L 400.96875 222.59375 L 384.121094 222.59375 Z M 384.121094 228.261719 "/>
<path style=" stroke:none;fill-rule:evenodd;fill:rgb(21.568627%,65.490196%,85.882353%);fill-opacity:1;" d="M 303.15625 265.109375 L 320.003906 265.109375 L 320.003906 259.441406 L 303.15625 259.441406 Z M 303.15625 265.109375 "/>
<path style=" stroke:none;fill-rule:evenodd;fill:rgb(21.568627%,65.490196%,85.882353%);fill-opacity:1;" d="M 358.378906 257.738281 L 375.226562 257.738281 L 375.226562 252.070312 L 358.378906 252.070312 Z M 358.378906 257.738281 "/>
<path style=" stroke:none;fill-rule:evenodd;fill:rgb(21.568627%,65.490196%,85.882353%);fill-opacity:1;" d="M 331.234375 301.960938 L 348.082031 301.960938 L 348.082031 296.292969 L 331.234375 296.292969 Z M 331.234375 301.960938 "/>
<path style=" stroke:none;fill-rule:evenodd;fill:rgb(21.568627%,65.490196%,85.882353%);fill-opacity:1;" d="M 319.535156 309.332031 L 336.382812 309.332031 L 336.382812 303.664062 L 319.535156 303.664062 Z M 319.535156 309.332031 "/>
<path style=" stroke:none;fill-rule:evenodd;fill:rgb(21.568627%,65.490196%,85.882353%);fill-opacity:1;" d="M 143.101562 213.519531 L 159.949219 213.519531 L 159.949219 207.851562 L 143.101562 207.851562 Z M 143.101562 213.519531 "/>
<path style=" stroke:none;fill-rule:evenodd;fill:rgb(21.568627%,65.490196%,85.882353%);fill-opacity:1;" d="M 373.824219 243 L 390.671875 243 L 390.671875 237.332031 L 373.824219 237.332031 Z M 373.824219 243 "/>
<path style=" stroke:none;fill-rule:evenodd;fill:rgb(21.568627%,65.490196%,85.882353%);fill-opacity:1;" d="M 159.949219 220.890625 L 176.796875 220.890625 L 176.796875 215.222656 L 159.949219 215.222656 Z M 159.949219 220.890625 "/>
<path style=" stroke:none;fill-rule:evenodd;fill:rgb(21.568627%,65.490196%,85.882353%);fill-opacity:1;" d="M 361.65625 265.109375 L 378.503906 265.109375 L 378.503906 259.441406 L 361.65625 259.441406 Z M 361.65625 265.109375 "/>
<path style=" stroke:none;fill-rule:evenodd;fill:rgb(21.568627%,65.490196%,85.882353%);fill-opacity:1;" d="M 302.6875 287.21875 L 319.535156 287.21875 L 319.535156 281.550781 L 302.6875 281.550781 Z M 302.6875 287.21875 "/>
<path style=" stroke:none;fill-rule:evenodd;fill:rgb(21.568627%,65.490196%,85.882353%);fill-opacity:1;" d="M 272.734375 235.628906 L 289.582031 235.628906 L 289.582031 229.960938 L 272.734375 229.960938 Z M 272.734375 235.628906 "/>
<path style=" stroke:none;fill-rule:evenodd;fill:rgb(21.568627%,65.490196%,85.882353%);fill-opacity:1;" d="M 320.941406 316.699219 L 337.789062 316.699219 L 337.789062 311.03125 L 320.941406 311.03125 Z M 320.941406 316.699219 "/>
<path style=" stroke:none;fill-rule:evenodd;fill:rgb(21.568627%,65.490196%,85.882353%);fill-opacity:1;" d="M 312.046875 324.070312 L 328.894531 324.070312 L 328.894531 318.402344 L 312.046875 318.402344 Z M 312.046875 324.070312 "/>
<path style=" stroke:none;fill-rule:evenodd;fill:rgb(21.568627%,65.490196%,85.882353%);fill-opacity:1;" d="M 314.386719 331.441406 L 331.234375 331.441406 L 331.234375 325.773438 L 314.386719 325.773438 Z M 314.386719 331.441406 "/>
<path style=" stroke:none;fill-rule:evenodd;fill:rgb(21.568627%,65.490196%,85.882353%);fill-opacity:1;" d="M 312.515625 338.8125 L 329.363281 338.8125 L 329.363281 333.144531 L 312.515625 333.144531 Z M 312.515625 338.8125 "/>
<path style=" stroke:none;fill-rule:evenodd;fill:rgb(21.568627%,65.490196%,85.882353%);fill-opacity:1;" d="M 160.882812 228.261719 L 177.730469 228.261719 L 177.730469 222.59375 L 160.882812 222.59375 Z M 160.882812 228.261719 "/>
<path style=" stroke:none;fill-rule:evenodd;fill:rgb(21.568627%,65.490196%,85.882353%);fill-opacity:1;" d="M 311.578125 346.179688 L 328.425781 346.179688 L 328.425781 340.511719 L 311.578125 340.511719 Z M 311.578125 346.179688 "/>
<path style=" stroke:none;fill-rule:evenodd;fill:rgb(21.568627%,65.490196%,85.882353%);fill-opacity:1;" d="M 281.628906 250.371094 L 298.476562 250.371094 L 298.476562 244.703125 L 281.628906 244.703125 Z M 281.628906 250.371094 "/>
<path style=" stroke:none;fill-rule:evenodd;fill:rgb(21.568627%,65.490196%,85.882353%);fill-opacity:1;" d="M 310.644531 294.589844 L 327.492188 294.589844 L 327.492188 288.921875 L 310.644531 288.921875 Z M 310.644531 294.589844 "/>
<path style=" stroke:none;fill-rule:evenodd;fill:rgb(21.568627%,65.490196%,85.882353%);fill-opacity:1;" d="M 312.984375 353.550781 L 329.832031 353.550781 L 329.832031 347.882812 L 312.984375 347.882812 Z M 312.984375 353.550781 "/>
<path style=" stroke:none;fill-rule:evenodd;fill:rgb(21.568627%,65.490196%,85.882353%);fill-opacity:1;" d="M 419.6875 220.890625 L 436.535156 220.890625 L 436.535156 215.222656 L 419.6875 215.222656 Z M 419.6875 220.890625 "/>
<path style=" stroke:none;fill-rule:evenodd;fill:rgb(21.568627%,65.490196%,85.882353%);fill-opacity:1;" d="M 370.078125 272.480469 L 386.925781 272.480469 L 386.925781 266.8125 L 370.078125 266.8125 Z M 370.078125 272.480469 "/>
<path style=" stroke:none;fill-rule:evenodd;fill:rgb(21.568627%,65.490196%,85.882353%);fill-opacity:1;" d="M 298.945312 301.960938 L 315.792969 301.960938 L 315.792969 296.292969 L 298.945312 296.292969 Z M 298.945312 301.960938 "/>
<path style=" stroke:none;fill-rule:evenodd;fill:rgb(21.568627%,65.490196%,85.882353%);fill-opacity:1;" d="M 291.457031 257.738281 L 308.304688 257.738281 L 308.304688 252.070312 L 291.457031 252.070312 Z M 291.457031 257.738281 "/>
<path style=" stroke:none;fill-rule:evenodd;fill:rgb(21.568627%,65.490196%,85.882353%);fill-opacity:1;" d="M 254.484375 220.890625 L 271.332031 220.890625 L 271.332031 215.222656 L 254.484375 215.222656 Z M 254.484375 220.890625 "/>
<path style=" stroke:none;fill-rule:evenodd;fill:rgb(21.568627%,65.490196%,85.882353%);fill-opacity:1;" d="M 243.253906 228.261719 L 260.101562 228.261719 L 260.101562 222.59375 L 243.253906 222.59375 Z M 243.253906 228.261719 "/>
<path style=" stroke:none;fill-rule:evenodd;fill:rgb(21.568627%,65.490196%,85.882353%);fill-opacity:1;" d="M 285.371094 272.480469 L 302.21875 272.480469 L 302.21875 266.8125 L 285.371094 266.8125 Z M 285.371094 272.480469 "/>
<path style=" stroke:none;fill-rule:evenodd;fill:rgb(21.568627%,65.490196%,85.882353%);fill-opacity:1;" d="M 292.859375 279.851562 L 309.707031 279.851562 L 309.707031 274.183594 L 292.859375 274.183594 Z M 292.859375 279.851562 "/>
<path style=" stroke:none;fill-rule:evenodd;fill:rgb(21.568627%,65.490196%,85.882353%);fill-opacity:1;" d="M 275.542969 243 L 292.390625 243 L 292.390625 237.332031 L 275.542969 237.332031 Z M 275.542969 243 "/>
<path style=" stroke:none;fill-rule:evenodd;fill:rgb(21.568627%,65.490196%,85.882353%);fill-opacity:1;" d="M 288.648438 309.332031 L 305.496094 309.332031 L 305.496094 303.664062 L 288.648438 303.664062 Z M 288.648438 309.332031 "/>
<path style=" stroke:none;fill-rule:evenodd;fill:rgb(21.568627%,65.490196%,85.882353%);fill-opacity:1;" d="M 340.597656 324.070312 L 357.445312 324.070312 L 357.445312 318.402344 L 340.597656 318.402344 Z M 340.597656 324.070312 "/>
<path style=" stroke:none;fill-rule:evenodd;fill:rgb(21.568627%,65.490196%,85.882353%);fill-opacity:1;" d="M 258.226562 257.738281 L 275.074219 257.738281 L 275.074219 252.070312 L 258.226562 252.070312 Z M 258.226562 257.738281 "/>
<path style=" stroke:none;fill-rule:evenodd;fill:rgb(21.568627%,65.490196%,85.882353%);fill-opacity:1;" d="M 291.925781 316.699219 L 308.773438 316.699219 L 308.773438 311.03125 L 291.925781 311.03125 Z M 291.925781 316.699219 "/>
<path style=" stroke:none;fill-rule:evenodd;fill:rgb(21.568627%,65.490196%,85.882353%);fill-opacity:1;" d="M 348.550781 309.332031 L 365.398438 309.332031 L 365.398438 303.664062 L 348.550781 303.664062 Z M 348.550781 309.332031 "/>
<path style=" stroke:none;fill-rule:evenodd;fill:rgb(21.568627%,65.490196%,85.882353%);fill-opacity:1;" d="M 287.710938 331.441406 L 304.558594 331.441406 L 304.558594 325.773438 L 287.710938 325.773438 Z M 287.710938 331.441406 "/>
<path style=" stroke:none;fill-rule:evenodd;fill:rgb(21.568627%,65.490196%,85.882353%);fill-opacity:1;" d="M 281.160156 294.589844 L 298.007812 294.589844 L 298.007812 288.921875 L 281.160156 288.921875 Z M 281.160156 294.589844 "/>
<path style=" stroke:none;fill-rule:evenodd;fill:rgb(21.568627%,65.490196%,85.882353%);fill-opacity:1;" d="M 349.019531 316.699219 L 365.867188 316.699219 L 365.867188 311.03125 L 349.019531 311.03125 Z M 349.019531 316.699219 "/>
<path style=" stroke:none;fill-rule:evenodd;fill:rgb(21.568627%,65.490196%,85.882353%);fill-opacity:1;" d="M 213.769531 213.519531 L 230.617188 213.519531 L 230.617188 207.851562 L 213.769531 207.851562 Z M 213.769531 213.519531 "/>
<path style=" stroke:none;fill-rule:evenodd;fill:rgb(21.568627%,65.490196%,85.882353%);fill-opacity:1;" d="M 262.90625 265.109375 L 279.753906 265.109375 L 279.753906 259.441406 L 262.90625 259.441406 Z M 262.90625 265.109375 "/>
<path style=" stroke:none;fill-rule:evenodd;fill:rgb(21.568627%,65.490196%,85.882353%);fill-opacity:1;" d="M 381.3125 235.628906 L 398.160156 235.628906 L 398.160156 229.960938 L 381.3125 229.960938 Z M 381.3125 235.628906 "/>
<path style=" stroke:none;fill-rule:evenodd;fill:rgb(21.568627%,65.490196%,85.882353%);fill-opacity:1;" d="M 341.53125 331.441406 L 358.378906 331.441406 L 358.378906 325.773438 L 341.53125 325.773438 Z M 341.53125 331.441406 "/>
<path style=" stroke:none;fill-rule:evenodd;fill:rgb(21.568627%,65.490196%,85.882353%);fill-opacity:1;" d="M 343.402344 338.8125 L 360.25 338.8125 L 360.25 333.144531 L 343.402344 333.144531 Z M 343.402344 338.8125 "/>
<path style=" stroke:none;fill-rule:evenodd;fill:rgb(21.568627%,65.490196%,85.882353%);fill-opacity:1;" d="M 255.886719 272.480469 L 272.734375 272.480469 L 272.734375 266.8125 L 255.886719 266.8125 Z M 255.886719 272.480469 "/>
<g clip-path="url(#clip1)" clip-rule="nonzero">
<path style=" stroke:none;fill-rule:evenodd;fill:rgb(21.568627%,65.490196%,85.882353%);fill-opacity:1;" d="M 561.492188 213.519531 L 578.339844 213.519531 L 578.339844 207.851562 L 561.492188 207.851562 Z M 561.492188 213.519531 "/>
</g>
<path style=" stroke:none;fill-rule:evenodd;fill:rgb(21.568627%,65.490196%,85.882353%);fill-opacity:1;" d="M 237.167969 235.628906 L 254.015625 235.628906 L 254.015625 229.960938 L 237.167969 229.960938 Z M 237.167969 235.628906 "/>
<path style=" stroke:none;fill-rule:evenodd;fill:rgb(21.568627%,65.490196%,85.882353%);fill-opacity:1;" d="M 338.257812 346.179688 L 355.105469 346.179688 L 355.105469 340.511719 L 338.257812 340.511719 Z M 338.257812 346.179688 "/>
<path style=" stroke:none;fill-rule:evenodd;fill:rgb(21.568627%,65.490196%,85.882353%);fill-opacity:1;" d="M 422.964844 228.261719 L 439.8125 228.261719 L 439.8125 222.59375 L 422.964844 222.59375 Z M 422.964844 228.261719 "/>
<path style=" stroke:none;fill-rule:evenodd;fill:rgb(21.568627%,65.490196%,85.882353%);fill-opacity:1;" d="M 271.332031 287.21875 L 288.179688 287.21875 L 288.179688 281.550781 L 271.332031 281.550781 Z M 271.332031 287.21875 "/>
<path style=" stroke:none;fill-rule:evenodd;fill:rgb(21.568627%,65.490196%,85.882353%);fill-opacity:1;" d="M 345.742188 353.550781 L 362.589844 353.550781 L 362.589844 347.882812 L 345.742188 347.882812 Z M 345.742188 353.550781 "/>
<path style=" stroke:none;fill-rule:evenodd;fill:rgb(21.568627%,65.490196%,85.882353%);fill-opacity:1;" d="M 363.058594 279.851562 L 379.90625 279.851562 L 379.90625 274.183594 L 363.058594 274.183594 Z M 363.058594 279.851562 "/>
<path style=" stroke:none;fill-rule:evenodd;fill:rgb(21.568627%,65.490196%,85.882353%);fill-opacity:1;" d="M 374.761719 250.371094 L 391.609375 250.371094 L 391.609375 244.703125 L 374.761719 244.703125 Z M 374.761719 250.371094 "/>
<path style=" stroke:none;fill-rule:evenodd;fill:rgb(21.568627%,65.490196%,85.882353%);fill-opacity:1;" d="M 269.460938 301.960938 L 286.308594 301.960938 L 286.308594 296.292969 L 269.460938 296.292969 Z M 269.460938 301.960938 "/>
<path style=" stroke:none;fill-rule:evenodd;fill:rgb(21.568627%,65.490196%,85.882353%);fill-opacity:1;" d="M 253.546875 250.371094 L 270.394531 250.371094 L 270.394531 244.703125 L 253.546875 244.703125 Z M 253.546875 250.371094 "/>
<path style=" stroke:none;fill-rule:evenodd;fill:rgb(21.568627%,65.490196%,85.882353%);fill-opacity:1;" d="M 142.632812 235.628906 L 159.480469 235.628906 L 159.480469 229.960938 L 142.632812 229.960938 Z M 142.632812 235.628906 "/>
<path style=" stroke:none;fill-rule:evenodd;fill:rgb(21.568627%,65.490196%,85.882353%);fill-opacity:1;" d="M 284.902344 324.070312 L 301.75 324.070312 L 301.75 318.402344 L 284.902344 318.402344 Z M 284.902344 324.070312 "/>
<path style=" stroke:none;fill-rule:evenodd;fill:rgb(21.568627%,65.490196%,85.882353%);fill-opacity:1;" d="M 154.332031 243 L 171.179688 243 L 171.179688 237.332031 L 154.332031 237.332031 Z M 154.332031 243 "/>
<path style=" stroke:none;fill-rule:evenodd;fill:rgb(21.568627%,65.490196%,85.882353%);fill-opacity:1;" d="M 270.394531 338.8125 L 287.242188 338.8125 L 287.242188 333.144531 L 270.394531 333.144531 Z M 270.394531 338.8125 "/>
<g clip-path="url(#clip2)" clip-rule="nonzero">
<path style="fill:none;stroke-width:0.75;stroke-linecap:round;stroke-linejoin:round;stroke:rgb(74.509804%,74.509804%,74.509804%);stroke-opacity:1;stroke-miterlimit:10;" d="M 108 207 L 576 207 "/>
</g>
</g>
</svg>
