<?xml version="1.0" encoding="UTF-8"?>
<svg xmlns="http://www.w3.org/2000/svg" xmlns:xlink="http://www.w3.org/1999/xlink" width="684pt" height="432pt" viewBox="0 0 684 432" version="1.1">
<defs>
<clipPath id="clip1">
  <path d="M 561 354 L 576 354 L 576 360 L 561 360 Z M 561 354 "/>
</clipPath>
<clipPath id="clip2">
  <path d="M 108 359 L 576 359 L 576 360 L 108 360 Z M 108 359 "/>
</clipPath>
</defs>
<g id="surface790">
<path style=" stroke:none;fill-rule:evenodd;fill:rgb(74.509804%,74.509804%,74.509804%);fill-opacity:1;" d="M 574.460938 56.347656 L 574.460938 57.601562 L 574.03125 57.601562 L 574.03125 56.347656 L 572.789062 56.347656 L 572.789062 55.917969 L 574.03125 55.917969 L 574.03125 54.664062 L 574.460938 54.664062 L 574.460938 55.917969 L 575.703125 55.917969 L 575.703125 56.347656 Z M 574.460938 56.347656 "/>
<path style=" stroke:none;fill-rule:evenodd;fill:rgb(49.411765%,80.392157%,73.333333%);fill-opacity:1;" d="M 298.007812 360 L 314.855469 360 L 314.855469 354.332031 L 298.007812 354.332031 Z M 298.007812 360 "/>
<path style=" stroke:none;fill-rule:evenodd;fill:rgb(49.411765%,80.392157%,73.333333%);fill-opacity:1;" d="M 399.5625 360 L 416.410156 360 L 416.410156 354.332031 L 399.5625 354.332031 Z M 399.5625 360 "/>
<path style=" stroke:none;fill-rule:evenodd;fill:rgb(49.411765%,80.392157%,73.333333%);fill-opacity:1;" d="M 340.597656 360 L 357.445312 360 L 357.445312 354.332031 L 340.597656 354.332031 Z M 340.597656 360 "/>
<path style=" stroke:none;fill-rule:evenodd;fill:rgb(21.568627%,65.490196%,85.882353%);fill-opacity:1;" d="M 384.121094 352.628906 L 400.96875 352.628906 L 400.96875 346.960938 L 384.121094 346.960938 Z M 384.121094 352.628906 "/>
<path style=" stroke:none;fill-rule:evenodd;fill:rgb(49.411765%,80.392157%,73.333333%);fill-opacity:1;" d="M 407.050781 345.261719 L 423.898438 345.261719 L 423.898438 339.59375 L 407.050781 339.59375 Z M 407.050781 345.261719 "/>
<path style=" stroke:none;fill-rule:evenodd;fill:rgb(21.568627%,65.490196%,85.882353%);fill-opacity:1;" d="M 391.609375 337.890625 L 408.457031 337.890625 L 408.457031 332.222656 L 391.609375 332.222656 Z M 391.609375 337.890625 "/>
<path style=" stroke:none;fill-rule:evenodd;fill:rgb(21.568627%,65.490196%,85.882353%);fill-opacity:1;" d="M 285.371094 352.628906 L 302.21875 352.628906 L 302.21875 346.960938 L 285.371094 346.960938 Z M 285.371094 352.628906 "/>
<path style=" stroke:none;fill-rule:evenodd;fill:rgb(49.411765%,80.392157%,73.333333%);fill-opacity:1;" d="M 253.546875 360 L 270.394531 360 L 270.394531 354.332031 L 253.546875 354.332031 Z M 253.546875 360 "/>
<path style=" stroke:none;fill-rule:evenodd;fill:rgb(21.568627%,65.490196%,85.882353%);fill-opacity:1;" d="M 340.597656 352.628906 L 357.445312 352.628906 L 357.445312 346.960938 L 340.597656 346.960938 Z M 340.597656 352.628906 "/>
<path style=" stroke:none;fill-rule:evenodd;fill:rgb(21.568627%,65.490196%,85.882353%);fill-opacity:1;" d="M 313.921875 352.628906 L 330.769531 352.628906 L 330.769531 346.960938 L 313.921875 346.960938 Z M 313.921875 352.628906 "/>
<path style=" stroke:none;fill-rule:evenodd;fill:rgb(49.411765%,80.392157%,73.333333%);fill-opacity:1;" d="M 358.847656 345.261719 L 375.695312 345.261719 L 375.695312 339.59375 L 358.847656 339.59375 Z M 358.847656 345.261719 "/>
<path style=" stroke:none;fill-rule:evenodd;fill:rgb(49.411765%,80.392157%,73.333333%);fill-opacity:1;" d="M 296.605469 345.261719 L 313.453125 345.261719 L 313.453125 339.59375 L 296.605469 339.59375 Z M 296.605469 345.261719 "/>
<path style=" stroke:none;fill-rule:evenodd;fill:rgb(21.568627%,65.490196%,85.882353%);fill-opacity:1;" d="M 356.039062 337.890625 L 372.886719 337.890625 L 372.886719 332.222656 L 356.039062 332.222656 Z M 356.039062 337.890625 "/>
<path style=" stroke:none;fill-rule:evenodd;fill:rgb(49.411765%,80.392157%,73.333333%);fill-opacity:1;" d="M 336.851562 330.519531 L 353.699219 330.519531 L 353.699219 324.851562 L 336.851562 324.851562 Z M 336.851562 330.519531 "/>
<path style=" stroke:none;fill-rule:evenodd;fill:rgb(21.568627%,65.490196%,85.882353%);fill-opacity:1;" d="M 282.5625 337.890625 L 299.410156 337.890625 L 299.410156 332.222656 L 282.5625 332.222656 Z M 282.5625 337.890625 "/>
<path style=" stroke:none;fill-rule:evenodd;fill:rgb(49.411765%,80.392157%,73.333333%);fill-opacity:1;" d="M 287.242188 330.519531 L 304.089844 330.519531 L 304.089844 324.851562 L 287.242188 324.851562 Z M 287.242188 330.519531 "/>
<path style=" stroke:none;fill-rule:evenodd;fill:rgb(49.411765%,80.392157%,73.333333%);fill-opacity:1;" d="M 364.933594 330.519531 L 381.78125 330.519531 L 381.78125 324.851562 L 364.933594 324.851562 Z M 364.933594 330.519531 "/>
<path style=" stroke:none;fill-rule:evenodd;fill:rgb(21.568627%,65.490196%,85.882353%);fill-opacity:1;" d="M 243.253906 352.628906 L 260.101562 352.628906 L 260.101562 346.960938 L 243.253906 346.960938 Z M 243.253906 352.628906 "/>
<path style=" stroke:none;fill-rule:evenodd;fill:rgb(21.568627%,65.490196%,85.882353%);fill-opacity:1;" d="M 333.109375 323.148438 L 349.957031 323.148438 L 349.957031 317.480469 L 333.109375 317.480469 Z M 333.109375 323.148438 "/>
<path style=" stroke:none;fill-rule:evenodd;fill:rgb(21.568627%,65.490196%,85.882353%);fill-opacity:1;" d="M 411.730469 352.628906 L 428.578125 352.628906 L 428.578125 346.960938 L 411.730469 346.960938 Z M 411.730469 352.628906 "/>
<path style=" stroke:none;fill-rule:evenodd;fill:rgb(49.411765%,80.392157%,73.333333%);fill-opacity:1;" d="M 449.640625 360 L 466.488281 360 L 466.488281 354.332031 L 449.640625 354.332031 Z M 449.640625 360 "/>
<path style=" stroke:none;fill-rule:evenodd;fill:rgb(49.411765%,80.392157%,73.333333%);fill-opacity:1;" d="M 334.042969 315.78125 L 350.890625 315.78125 L 350.890625 310.113281 L 334.042969 310.113281 Z M 334.042969 315.78125 "/>
<path style=" stroke:none;fill-rule:evenodd;fill:rgb(21.568627%,65.490196%,85.882353%);fill-opacity:1;" d="M 387.394531 323.148438 L 404.242188 323.148438 L 404.242188 317.480469 L 387.394531 317.480469 Z M 387.394531 323.148438 "/>
<path style=" stroke:none;fill-rule:evenodd;fill:rgb(49.411765%,80.392157%,73.333333%);fill-opacity:1;" d="M 327.960938 345.261719 L 344.808594 345.261719 L 344.808594 339.59375 L 327.960938 339.59375 Z M 327.960938 345.261719 "/>
<path style=" stroke:none;fill-rule:evenodd;fill:rgb(21.568627%,65.490196%,85.882353%);fill-opacity:1;" d="M 318.601562 337.890625 L 335.449219 337.890625 L 335.449219 332.222656 L 318.601562 332.222656 Z M 318.601562 337.890625 "/>
<path style=" stroke:none;fill-rule:evenodd;fill:rgb(21.568627%,65.490196%,85.882353%);fill-opacity:1;" d="M 353.699219 308.410156 L 370.546875 308.410156 L 370.546875 302.742188 L 353.699219 302.742188 Z M 353.699219 308.410156 "/>
<path style=" stroke:none;fill-rule:evenodd;fill:rgb(49.411765%,80.392157%,73.333333%);fill-opacity:1;" d="M 343.402344 301.039062 L 360.25 301.039062 L 360.25 295.371094 L 343.402344 295.371094 Z M 343.402344 301.039062 "/>
<path style=" stroke:none;fill-rule:evenodd;fill:rgb(21.568627%,65.490196%,85.882353%);fill-opacity:1;" d="M 297.539062 323.148438 L 314.386719 323.148438 L 314.386719 317.480469 L 297.539062 317.480469 Z M 297.539062 323.148438 "/>
<path style=" stroke:none;fill-rule:evenodd;fill:rgb(49.411765%,80.392157%,73.333333%);fill-opacity:1;" d="M 275.542969 315.78125 L 292.390625 315.78125 L 292.390625 310.113281 L 275.542969 310.113281 Z M 275.542969 315.78125 "/>
<path style=" stroke:none;fill-rule:evenodd;fill:rgb(49.411765%,80.392157%,73.333333%);fill-opacity:1;" d="M 213.769531 360 L 230.617188 360 L 230.617188 354.332031 L 213.769531 354.332031 Z M 213.769531 360 "/>
<path style=" stroke:none;fill-rule:evenodd;fill:rgb(21.568627%,65.490196%,85.882353%);fill-opacity:1;" d="M 338.722656 293.667969 L 355.570312 293.667969 L 355.570312 288 L 338.722656 288 Z M 338.722656 293.667969 "/>
<path style=" stroke:none;fill-rule:evenodd;fill:rgb(49.411765%,80.392157%,73.333333%);fill-opacity:1;" d="M 337.789062 286.300781 L 354.636719 286.300781 L 354.636719 280.632812 L 337.789062 280.632812 Z M 337.789062 286.300781 "/>
<path style=" stroke:none;fill-rule:evenodd;fill:rgb(21.568627%,65.490196%,85.882353%);fill-opacity:1;" d="M 276.011719 308.410156 L 292.859375 308.410156 L 292.859375 302.742188 L 276.011719 302.742188 Z M 276.011719 308.410156 "/>
<path style=" stroke:none;fill-rule:evenodd;fill:rgb(21.568627%,65.490196%,85.882353%);fill-opacity:1;" d="M 419.6875 337.890625 L 436.535156 337.890625 L 436.535156 332.222656 L 419.6875 332.222656 Z M 419.6875 337.890625 "/>
<path style=" stroke:none;fill-rule:evenodd;fill:rgb(21.568627%,65.490196%,85.882353%);fill-opacity:1;" d="M 337.789062 278.929688 L 354.636719 278.929688 L 354.636719 273.261719 L 337.789062 273.261719 Z M 337.789062 278.929688 "/>
<path style=" stroke:none;fill-rule:evenodd;fill:rgb(49.411765%,80.392157%,73.333333%);fill-opacity:1;" d="M 291.457031 301.039062 L 308.304688 301.039062 L 308.304688 295.371094 L 291.457031 295.371094 Z M 291.457031 301.039062 "/>
<path style=" stroke:none;fill-rule:evenodd;fill:rgb(49.411765%,80.392157%,73.333333%);fill-opacity:1;" d="M 356.507812 271.558594 L 373.355469 271.558594 L 373.355469 265.890625 L 356.507812 265.890625 Z M 356.507812 271.558594 "/>
<path style=" stroke:none;fill-rule:evenodd;fill:rgb(49.411765%,80.392157%,73.333333%);fill-opacity:1;" d="M 369.144531 360 L 385.992188 360 L 385.992188 354.332031 L 369.144531 354.332031 Z M 369.144531 360 "/>
<path style=" stroke:none;fill-rule:evenodd;fill:rgb(21.568627%,65.490196%,85.882353%);fill-opacity:1;" d="M 321.875 308.410156 L 338.722656 308.410156 L 338.722656 302.742188 L 321.875 302.742188 Z M 321.875 308.410156 "/>
<path style=" stroke:none;fill-rule:evenodd;fill:rgb(21.568627%,65.490196%,85.882353%);fill-opacity:1;" d="M 352.765625 264.1875 L 369.613281 264.1875 L 369.613281 258.519531 L 352.765625 258.519531 Z M 352.765625 264.1875 "/>
<path style=" stroke:none;fill-rule:evenodd;fill:rgb(49.411765%,80.392157%,73.333333%);fill-opacity:1;" d="M 400.03125 330.519531 L 416.878906 330.519531 L 416.878906 324.851562 L 400.03125 324.851562 Z M 400.03125 330.519531 "/>
<path style=" stroke:none;fill-rule:evenodd;fill:rgb(21.568627%,65.490196%,85.882353%);fill-opacity:1;" d="M 450.109375 352.628906 L 466.957031 352.628906 L 466.957031 346.960938 L 450.109375 346.960938 Z M 450.109375 352.628906 "/>
<path style=" stroke:none;fill-rule:evenodd;fill:rgb(21.568627%,65.490196%,85.882353%);fill-opacity:1;" d="M 280.222656 293.667969 L 297.070312 293.667969 L 297.070312 288 L 280.222656 288 Z M 280.222656 293.667969 "/>
<path style=" stroke:none;fill-rule:evenodd;fill:rgb(49.411765%,80.392157%,73.333333%);fill-opacity:1;" d="M 355.105469 256.820312 L 371.953125 256.820312 L 371.953125 251.152344 L 355.105469 251.152344 Z M 355.105469 256.820312 "/>
<g clip-path="url(#clip1)" clip-rule="nonzero">
<path style=" stroke:none;fill-rule:evenodd;fill:rgb(49.411765%,80.392157%,73.333333%);fill-opacity:1;" d="M 561.492188 360 L 578.339844 360 L 578.339844 354.332031 L 561.492188 354.332031 Z M 561.492188 360 "/>
</g>
<path style=" stroke:none;fill-rule:evenodd;fill:rgb(49.411765%,80.392157%,73.333333%);fill-opacity:1;" d="M 237.167969 345.261719 L 254.015625 345.261719 L 254.015625 339.59375 L 237.167969 339.59375 Z M 237.167969 345.261719 "/>
<path style=" stroke:none;fill-rule:evenodd;fill:rgb(21.568627%,65.490196%,85.882353%);fill-opacity:1;" d="M 343.871094 249.449219 L 360.71875 249.449219 L 360.71875 243.78125 L 343.871094 243.78125 Z M 343.871094 249.449219 "/>
<path style=" stroke:none;fill-rule:evenodd;fill:rgb(49.411765%,80.392157%,73.333333%);fill-opacity:1;" d="M 461.808594 345.261719 L 478.65625 345.261719 L 478.65625 339.59375 L 461.808594 339.59375 Z M 461.808594 345.261719 "/>
<path style=" stroke:none;fill-rule:evenodd;fill:rgb(49.411765%,80.392157%,73.333333%);fill-opacity:1;" d="M 381.3125 315.78125 L 398.160156 315.78125 L 398.160156 310.113281 L 381.3125 310.113281 Z M 381.3125 315.78125 "/>
<path style=" stroke:none;fill-rule:evenodd;fill:rgb(49.411765%,80.392157%,73.333333%);fill-opacity:1;" d="M 332.640625 242.078125 L 349.488281 242.078125 L 349.488281 236.410156 L 332.640625 236.410156 Z M 332.640625 242.078125 "/>
<path style=" stroke:none;fill-rule:evenodd;fill:rgb(49.411765%,80.392157%,73.333333%);fill-opacity:1;" d="M 319.535156 271.558594 L 336.382812 271.558594 L 336.382812 265.890625 L 319.535156 265.890625 Z M 319.535156 271.558594 "/>
<path style=" stroke:none;fill-rule:evenodd;fill:rgb(49.411765%,80.392157%,73.333333%);fill-opacity:1;" d="M 371.015625 301.039062 L 387.863281 301.039062 L 387.863281 295.371094 L 371.015625 295.371094 Z M 371.015625 301.039062 "/>
<path style=" stroke:none;fill-rule:evenodd;fill:rgb(49.411765%,80.392157%,73.333333%);fill-opacity:1;" d="M 258.226562 330.519531 L 275.074219 330.519531 L 275.074219 324.851562 L 258.226562 324.851562 Z M 258.226562 330.519531 "/>
<path style=" stroke:none;fill-rule:evenodd;fill:rgb(49.411765%,80.392157%,73.333333%);fill-opacity:1;" d="M 361.65625 242.078125 L 378.503906 242.078125 L 378.503906 236.410156 L 361.65625 236.410156 Z M 361.65625 242.078125 "/>
<path style=" stroke:none;fill-rule:evenodd;fill:rgb(21.568627%,65.490196%,85.882353%);fill-opacity:1;" d="M 337.320312 234.707031 L 354.167969 234.707031 L 354.167969 229.039062 L 337.320312 229.039062 Z M 337.320312 234.707031 "/>
<path style=" stroke:none;fill-rule:evenodd;fill:rgb(49.411765%,80.392157%,73.333333%);fill-opacity:1;" d="M 349.957031 227.339844 L 366.804688 227.339844 L 366.804688 221.671875 L 349.957031 221.671875 Z M 349.957031 227.339844 "/>
<path style=" stroke:none;fill-rule:evenodd;fill:rgb(49.411765%,80.392157%,73.333333%);fill-opacity:1;" d="M 269.460938 345.261719 L 286.308594 345.261719 L 286.308594 339.59375 L 269.460938 339.59375 Z M 269.460938 345.261719 "/>
<path style=" stroke:none;fill-rule:evenodd;fill:rgb(21.568627%,65.490196%,85.882353%);fill-opacity:1;" d="M 396.757812 308.410156 L 413.605469 308.410156 L 413.605469 302.742188 L 396.757812 302.742188 Z M 396.757812 308.410156 "/>
<path style=" stroke:none;fill-rule:evenodd;fill:rgb(21.568627%,65.490196%,85.882353%);fill-opacity:1;" d="M 393.949219 293.667969 L 410.796875 293.667969 L 410.796875 288 L 393.949219 288 Z M 393.949219 293.667969 "/>
<path style=" stroke:none;fill-rule:evenodd;fill:rgb(21.568627%,65.490196%,85.882353%);fill-opacity:1;" d="M 339.191406 219.96875 L 356.039062 219.96875 L 356.039062 214.300781 L 339.191406 214.300781 Z M 339.191406 219.96875 "/>
<path style=" stroke:none;fill-rule:evenodd;fill:rgb(49.411765%,80.392157%,73.333333%);fill-opacity:1;" d="M 342.9375 212.597656 L 359.785156 212.597656 L 359.785156 206.929688 L 342.9375 206.929688 Z M 342.9375 212.597656 "/>
<path style=" stroke:none;fill-rule:evenodd;fill:rgb(21.568627%,65.490196%,85.882353%);fill-opacity:1;" d="M 331.703125 205.226562 L 348.550781 205.226562 L 348.550781 199.558594 L 331.703125 199.558594 Z M 331.703125 205.226562 "/>
<path style=" stroke:none;fill-rule:evenodd;fill:rgb(49.411765%,80.392157%,73.333333%);fill-opacity:1;" d="M 288.179688 286.300781 L 305.027344 286.300781 L 305.027344 280.632812 L 288.179688 280.632812 Z M 288.179688 286.300781 "/>
<path style=" stroke:none;fill-rule:evenodd;fill:rgb(21.568627%,65.490196%,85.882353%);fill-opacity:1;" d="M 315.324219 264.1875 L 332.171875 264.1875 L 332.171875 258.519531 L 315.324219 258.519531 Z M 315.324219 264.1875 "/>
<path style=" stroke:none;fill-rule:evenodd;fill:rgb(49.411765%,80.392157%,73.333333%);fill-opacity:1;" d="M 372.421875 286.300781 L 389.269531 286.300781 L 389.269531 280.632812 L 372.421875 280.632812 Z M 372.421875 286.300781 "/>
<path style=" stroke:none;fill-rule:evenodd;fill:rgb(49.411765%,80.392157%,73.333333%);fill-opacity:1;" d="M 326.089844 256.820312 L 342.9375 256.820312 L 342.9375 251.152344 L 326.089844 251.152344 Z M 326.089844 256.820312 "/>
<path style=" stroke:none;fill-rule:evenodd;fill:rgb(49.411765%,80.392157%,73.333333%);fill-opacity:1;" d="M 405.648438 301.039062 L 422.496094 301.039062 L 422.496094 295.371094 L 405.648438 295.371094 Z M 405.648438 301.039062 "/>
<path style=" stroke:none;fill-rule:evenodd;fill:rgb(49.411765%,80.392157%,73.333333%);fill-opacity:1;" d="M 399.097656 286.300781 L 415.945312 286.300781 L 415.945312 280.632812 L 399.097656 280.632812 Z M 399.097656 286.300781 "/>
<path style=" stroke:none;fill-rule:evenodd;fill:rgb(49.411765%,80.392157%,73.333333%);fill-opacity:1;" d="M 336.382812 197.859375 L 353.230469 197.859375 L 353.230469 192.191406 L 336.382812 192.191406 Z M 336.382812 197.859375 "/>
<path style=" stroke:none;fill-rule:evenodd;fill:rgb(21.568627%,65.490196%,85.882353%);fill-opacity:1;" d="M 331.234375 190.488281 L 348.082031 190.488281 L 348.082031 184.820312 L 331.234375 184.820312 Z M 331.234375 190.488281 "/>
<path style=" stroke:none;fill-rule:evenodd;fill:rgb(49.411765%,80.392157%,73.333333%);fill-opacity:1;" d="M 142.632812 360 L 159.480469 360 L 159.480469 354.332031 L 142.632812 354.332031 Z M 142.632812 360 "/>
<path style=" stroke:none;fill-rule:evenodd;fill:rgb(21.568627%,65.490196%,85.882353%);fill-opacity:1;" d="M 382.714844 278.929688 L 399.5625 278.929688 L 399.5625 273.261719 L 382.714844 273.261719 Z M 382.714844 278.929688 "/>
<path style=" stroke:none;fill-rule:evenodd;fill:rgb(21.568627%,65.490196%,85.882353%);fill-opacity:1;" d="M 292.859375 278.929688 L 309.707031 278.929688 L 309.707031 273.261719 L 292.859375 273.261719 Z M 292.859375 278.929688 "/>
<path style=" stroke:none;fill-rule:evenodd;fill:rgb(49.411765%,80.392157%,73.333333%);fill-opacity:1;" d="M 352.296875 183.117188 L 369.144531 183.117188 L 369.144531 177.449219 L 352.296875 177.449219 Z M 352.296875 183.117188 "/>
<path style=" stroke:none;fill-rule:evenodd;fill:rgb(21.568627%,65.490196%,85.882353%);fill-opacity:1;" d="M 348.085938 175.746094 L 364.933594 175.746094 L 364.933594 170.078125 L 348.085938 170.078125 Z M 348.085938 175.746094 "/>
<path style=" stroke:none;fill-rule:evenodd;fill:rgb(49.411765%,80.392157%,73.333333%);fill-opacity:1;" d="M 281.160156 271.558594 L 298.007812 271.558594 L 298.007812 265.890625 L 281.160156 265.890625 Z M 281.160156 271.558594 "/>
<path style=" stroke:none;fill-rule:evenodd;fill:rgb(49.411765%,80.392157%,73.333333%);fill-opacity:1;" d="M 350.890625 168.378906 L 367.738281 168.378906 L 367.738281 162.710938 L 350.890625 162.710938 Z M 350.890625 168.378906 "/>
<path style=" stroke:none;fill-rule:evenodd;fill:rgb(21.568627%,65.490196%,85.882353%);fill-opacity:1;" d="M 307.835938 293.667969 L 324.683594 293.667969 L 324.683594 288 L 307.835938 288 Z M 307.835938 293.667969 "/>
<path style=" stroke:none;fill-rule:evenodd;fill:rgb(21.568627%,65.490196%,85.882353%);fill-opacity:1;" d="M 349.019531 161.007812 L 365.867188 161.007812 L 365.867188 155.339844 L 349.019531 155.339844 Z M 349.019531 161.007812 "/>
<path style=" stroke:none;fill-rule:evenodd;fill:rgb(49.411765%,80.392157%,73.333333%);fill-opacity:1;" d="M 345.277344 153.636719 L 362.125 153.636719 L 362.125 147.96875 L 345.277344 147.96875 Z M 345.277344 153.636719 "/>
<path style=" stroke:none;fill-rule:evenodd;fill:rgb(21.568627%,65.490196%,85.882353%);fill-opacity:1;" d="M 284.902344 264.1875 L 301.75 264.1875 L 301.75 258.519531 L 284.902344 258.519531 Z M 284.902344 264.1875 "/>
<path style=" stroke:none;fill-rule:evenodd;fill:rgb(49.411765%,80.392157%,73.333333%);fill-opacity:1;" d="M 293.328125 256.820312 L 310.175781 256.820312 L 310.175781 251.152344 L 293.328125 251.152344 Z M 293.328125 256.820312 "/>
<path style=" stroke:none;fill-rule:evenodd;fill:rgb(21.568627%,65.490196%,85.882353%);fill-opacity:1;" d="M 334.042969 146.269531 L 350.890625 146.269531 L 350.890625 140.601562 L 334.042969 140.601562 Z M 334.042969 146.269531 "/>
<path style=" stroke:none;fill-rule:evenodd;fill:rgb(21.568627%,65.490196%,85.882353%);fill-opacity:1;" d="M 310.175781 249.449219 L 327.023438 249.449219 L 327.023438 243.78125 L 310.175781 243.78125 Z M 310.175781 249.449219 "/>
<path style=" stroke:none;fill-rule:evenodd;fill:rgb(49.411765%,80.392157%,73.333333%);fill-opacity:1;" d="M 338.257812 138.898438 L 355.105469 138.898438 L 355.105469 133.230469 L 338.257812 133.230469 Z M 338.257812 138.898438 "/>
<path style=" stroke:none;fill-rule:evenodd;fill:rgb(21.568627%,65.490196%,85.882353%);fill-opacity:1;" d="M 359.316406 205.226562 L 376.164062 205.226562 L 376.164062 199.558594 L 359.316406 199.558594 Z M 359.316406 205.226562 "/>
<path style=" stroke:none;fill-rule:evenodd;fill:rgb(49.411765%,80.392157%,73.333333%);fill-opacity:1;" d="M 312.515625 227.339844 L 329.363281 227.339844 L 329.363281 221.671875 L 312.515625 221.671875 Z M 312.515625 227.339844 "/>
<path style=" stroke:none;fill-rule:evenodd;fill:rgb(49.411765%,80.392157%,73.333333%);fill-opacity:1;" d="M 318.601562 183.117188 L 335.449219 183.117188 L 335.449219 177.449219 L 318.601562 177.449219 Z M 318.601562 183.117188 "/>
<path style=" stroke:none;fill-rule:evenodd;fill:rgb(21.568627%,65.490196%,85.882353%);fill-opacity:1;" d="M 321.40625 175.746094 L 338.253906 175.746094 L 338.253906 170.078125 L 321.40625 170.078125 Z M 321.40625 175.746094 "/>
<path style=" stroke:none;fill-rule:evenodd;fill:rgb(21.568627%,65.490196%,85.882353%);fill-opacity:1;" d="M 368.207031 234.707031 L 385.054688 234.707031 L 385.054688 229.039062 L 368.207031 229.039062 Z M 368.207031 234.707031 "/>
<path style=" stroke:none;fill-rule:evenodd;fill:rgb(49.411765%,80.392157%,73.333333%);fill-opacity:1;" d="M 392.074219 271.558594 L 408.921875 271.558594 L 408.921875 265.890625 L 392.074219 265.890625 Z M 392.074219 271.558594 "/>
<path style=" stroke:none;fill-rule:evenodd;fill:rgb(21.568627%,65.490196%,85.882353%);fill-opacity:1;" d="M 311.578125 219.96875 L 328.425781 219.96875 L 328.425781 214.300781 L 311.578125 214.300781 Z M 311.578125 219.96875 "/>
<path style=" stroke:none;fill-rule:evenodd;fill:rgb(21.568627%,65.490196%,85.882353%);fill-opacity:1;" d="M 418.753906 323.148438 L 435.601562 323.148438 L 435.601562 317.480469 L 418.753906 317.480469 Z M 418.753906 323.148438 "/>
<path style=" stroke:none;fill-rule:evenodd;fill:rgb(21.568627%,65.490196%,85.882353%);fill-opacity:1;" d="M 331.703125 131.527344 L 348.550781 131.527344 L 348.550781 125.859375 L 331.703125 125.859375 Z M 331.703125 131.527344 "/>
<path style=" stroke:none;fill-rule:evenodd;fill:rgb(21.568627%,65.490196%,85.882353%);fill-opacity:1;" d="M 371.953125 249.449219 L 388.800781 249.449219 L 388.800781 243.78125 L 371.953125 243.78125 Z M 371.953125 249.449219 "/>
<path style=" stroke:none;fill-rule:evenodd;fill:rgb(21.568627%,65.490196%,85.882353%);fill-opacity:1;" d="M 160.882812 352.628906 L 177.730469 352.628906 L 177.730469 346.960938 L 160.882812 346.960938 Z M 160.882812 352.628906 "/>
<path style=" stroke:none;fill-rule:evenodd;fill:rgb(49.411765%,80.392157%,73.333333%);fill-opacity:1;" d="M 377.101562 227.339844 L 393.949219 227.339844 L 393.949219 221.671875 L 377.101562 221.671875 Z M 377.101562 227.339844 "/>
<path style=" stroke:none;fill-rule:evenodd;fill:rgb(49.411765%,80.392157%,73.333333%);fill-opacity:1;" d="M 350.425781 124.15625 L 367.273438 124.15625 L 367.273438 118.488281 L 350.425781 118.488281 Z M 350.425781 124.15625 "/>
<path style=" stroke:none;fill-rule:evenodd;fill:rgb(21.568627%,65.490196%,85.882353%);fill-opacity:1;" d="M 354.636719 116.789062 L 371.484375 116.789062 L 371.484375 111.121094 L 354.636719 111.121094 Z M 354.636719 116.789062 "/>
<path style=" stroke:none;fill-rule:evenodd;fill:rgb(49.411765%,80.392157%,73.333333%);fill-opacity:1;" d="M 318.132812 168.378906 L 334.980469 168.378906 L 334.980469 162.710938 L 318.132812 162.710938 Z M 318.132812 168.378906 "/>
<path style=" stroke:none;fill-rule:evenodd;fill:rgb(49.411765%,80.392157%,73.333333%);fill-opacity:1;" d="M 160.882812 345.261719 L 177.730469 345.261719 L 177.730469 339.59375 L 160.882812 339.59375 Z M 160.882812 345.261719 "/>
<path style=" stroke:none;fill-rule:evenodd;fill:rgb(21.568627%,65.490196%,85.882353%);fill-opacity:1;" d="M 358.378906 190.488281 L 375.226562 190.488281 L 375.226562 184.820312 L 358.378906 184.820312 Z M 358.378906 190.488281 "/>
<path style=" stroke:none;fill-rule:evenodd;fill:rgb(21.568627%,65.490196%,85.882353%);fill-opacity:1;" d="M 322.34375 161.007812 L 339.191406 161.007812 L 339.191406 155.339844 L 322.34375 155.339844 Z M 322.34375 161.007812 "/>
<path style=" stroke:none;fill-rule:evenodd;fill:rgb(21.568627%,65.490196%,85.882353%);fill-opacity:1;" d="M 535.753906 352.628906 L 552.601562 352.628906 L 552.601562 346.960938 L 535.753906 346.960938 Z M 535.753906 352.628906 "/>
<path style=" stroke:none;fill-rule:evenodd;fill:rgb(49.411765%,80.392157%,73.333333%);fill-opacity:1;" d="M 294.265625 242.078125 L 311.113281 242.078125 L 311.113281 236.410156 L 294.265625 236.410156 Z M 294.265625 242.078125 "/>
<path style=" stroke:none;fill-rule:evenodd;fill:rgb(21.568627%,65.490196%,85.882353%);fill-opacity:1;" d="M 290.519531 234.707031 L 307.367188 234.707031 L 307.367188 229.039062 L 290.519531 229.039062 Z M 290.519531 234.707031 "/>
<path style=" stroke:none;fill-rule:evenodd;fill:rgb(21.568627%,65.490196%,85.882353%);fill-opacity:1;" d="M 375.226562 219.96875 L 392.074219 219.96875 L 392.074219 214.300781 L 375.226562 214.300781 Z M 375.226562 219.96875 "/>
<path style=" stroke:none;fill-rule:evenodd;fill:rgb(21.568627%,65.490196%,85.882353%);fill-opacity:1;" d="M 401.902344 264.1875 L 418.75 264.1875 L 418.75 258.519531 L 401.902344 258.519531 Z M 401.902344 264.1875 "/>
<path style=" stroke:none;fill-rule:evenodd;fill:rgb(49.411765%,80.392157%,73.333333%);fill-opacity:1;" d="M 330.300781 109.417969 L 347.148438 109.417969 L 347.148438 103.75 L 330.300781 103.75 Z M 330.300781 109.417969 "/>
<path style=" stroke:none;fill-rule:evenodd;fill:rgb(21.568627%,65.490196%,85.882353%);fill-opacity:1;" d="M 241.378906 337.890625 L 258.226562 337.890625 L 258.226562 332.222656 L 241.378906 332.222656 Z M 241.378906 337.890625 "/>
<path style=" stroke:none;fill-rule:evenodd;fill:rgb(49.411765%,80.392157%,73.333333%);fill-opacity:1;" d="M 422.964844 315.78125 L 439.8125 315.78125 L 439.8125 310.113281 L 422.964844 310.113281 Z M 422.964844 315.78125 "/>
<path style=" stroke:none;fill-rule:evenodd;fill:rgb(49.411765%,80.392157%,73.333333%);fill-opacity:1;" d="M 374.761719 212.597656 L 391.609375 212.597656 L 391.609375 206.929688 L 374.761719 206.929688 Z M 374.761719 212.597656 "/>
<path style=" stroke:none;fill-rule:evenodd;fill:rgb(49.411765%,80.392157%,73.333333%);fill-opacity:1;" d="M 312.046875 212.597656 L 328.894531 212.597656 L 328.894531 206.929688 L 312.046875 206.929688 Z M 312.046875 212.597656 "/>
<path style=" stroke:none;fill-rule:evenodd;fill:rgb(49.411765%,80.392157%,73.333333%);fill-opacity:1;" d="M 320.003906 124.15625 L 336.851562 124.15625 L 336.851562 118.488281 L 320.003906 118.488281 Z M 320.003906 124.15625 "/>
<path style=" stroke:none;fill-rule:evenodd;fill:rgb(21.568627%,65.490196%,85.882353%);fill-opacity:1;" d="M 159.949219 337.890625 L 176.796875 337.890625 L 176.796875 332.222656 L 159.949219 332.222656 Z M 159.949219 337.890625 "/>
<path style=" stroke:none;fill-rule:evenodd;fill:rgb(21.568627%,65.490196%,85.882353%);fill-opacity:1;" d="M 355.570312 102.046875 L 372.417969 102.046875 L 372.417969 96.378906 L 355.570312 96.378906 Z M 355.570312 102.046875 "/>
<path style=" stroke:none;fill-rule:evenodd;fill:rgb(49.411765%,80.392157%,73.333333%);fill-opacity:1;" d="M 334.511719 94.675781 L 351.359375 94.675781 L 351.359375 89.007812 L 334.511719 89.007812 Z M 334.511719 94.675781 "/>
<path style=" stroke:none;fill-rule:evenodd;fill:rgb(49.411765%,80.392157%,73.333333%);fill-opacity:1;" d="M 314.386719 153.636719 L 331.234375 153.636719 L 331.234375 147.96875 L 314.386719 147.96875 Z M 314.386719 153.636719 "/>
<path style=" stroke:none;fill-rule:evenodd;fill:rgb(21.568627%,65.490196%,85.882353%);fill-opacity:1;" d="M 329.363281 87.308594 L 346.210938 87.308594 L 346.210938 81.640625 L 329.363281 81.640625 Z M 329.363281 87.308594 "/>
<path style=" stroke:none;fill-rule:evenodd;fill:rgb(21.568627%,65.490196%,85.882353%);fill-opacity:1;" d="M 327.960938 116.789062 L 344.808594 116.789062 L 344.808594 111.121094 L 327.960938 111.121094 Z M 327.960938 116.789062 "/>
<path style=" stroke:none;fill-rule:evenodd;fill:rgb(49.411765%,80.392157%,73.333333%);fill-opacity:1;" d="M 444.023438 330.519531 L 460.871094 330.519531 L 460.871094 324.851562 L 444.023438 324.851562 Z M 444.023438 330.519531 "/>
<path style=" stroke:none;fill-rule:evenodd;fill:rgb(49.411765%,80.392157%,73.333333%);fill-opacity:1;" d="M 303.625 315.78125 L 320.472656 315.78125 L 320.472656 310.113281 L 303.625 310.113281 Z M 303.625 315.78125 "/>
<path style=" stroke:none;fill-rule:evenodd;fill:rgb(49.411765%,80.392157%,73.333333%);fill-opacity:1;" d="M 371.484375 197.859375 L 388.332031 197.859375 L 388.332031 192.191406 L 371.484375 192.191406 Z M 371.484375 197.859375 "/>
<path style=" stroke:none;fill-rule:evenodd;fill:rgb(21.568627%,65.490196%,85.882353%);fill-opacity:1;" d="M 374.761719 175.746094 L 391.609375 175.746094 L 391.609375 170.078125 L 374.761719 170.078125 Z M 374.761719 175.746094 "/>
<path style=" stroke:none;fill-rule:evenodd;fill:rgb(21.568627%,65.490196%,85.882353%);fill-opacity:1;" d="M 370.078125 146.269531 L 386.925781 146.269531 L 386.925781 140.601562 L 370.078125 140.601562 Z M 370.078125 146.269531 "/>
<path style=" stroke:none;fill-rule:evenodd;fill:rgb(21.568627%,65.490196%,85.882353%);fill-opacity:1;" d="M 410.796875 278.929688 L 427.644531 278.929688 L 427.644531 273.261719 L 410.796875 273.261719 Z M 410.796875 278.929688 "/>
<path style=" stroke:none;fill-rule:evenodd;fill:rgb(21.568627%,65.490196%,85.882353%);fill-opacity:1;" d="M 327.023438 102.046875 L 343.871094 102.046875 L 343.871094 96.378906 L 327.023438 96.378906 Z M 327.023438 102.046875 "/>
<path style=" stroke:none;fill-rule:evenodd;fill:rgb(49.411765%,80.392157%,73.333333%);fill-opacity:1;" d="M 320.941406 79.9375 L 337.789062 79.9375 L 337.789062 74.269531 L 320.941406 74.269531 Z M 320.941406 79.9375 "/>
<path style=" stroke:none;fill-rule:evenodd;fill:rgb(49.411765%,80.392157%,73.333333%);fill-opacity:1;" d="M 385.523438 256.820312 L 402.371094 256.820312 L 402.371094 251.152344 L 385.523438 251.152344 Z M 385.523438 256.820312 "/>
<path style=" stroke:none;fill-rule:evenodd;fill:rgb(21.568627%,65.490196%,85.882353%);fill-opacity:1;" d="M 363.058594 131.527344 L 379.90625 131.527344 L 379.90625 125.859375 L 363.058594 125.859375 Z M 363.058594 131.527344 "/>
<path style=" stroke:none;fill-rule:evenodd;fill:rgb(21.568627%,65.490196%,85.882353%);fill-opacity:1;" d="M 295.667969 205.226562 L 312.515625 205.226562 L 312.515625 199.558594 L 295.667969 199.558594 Z M 295.667969 205.226562 "/>
<path style=" stroke:none;fill-rule:evenodd;fill:rgb(49.411765%,80.392157%,73.333333%);fill-opacity:1;" d="M 154.332031 330.519531 L 171.179688 330.519531 L 171.179688 324.851562 L 154.332031 324.851562 Z M 154.332031 330.519531 "/>
<path style=" stroke:none;fill-rule:evenodd;fill:rgb(21.568627%,65.490196%,85.882353%);fill-opacity:1;" d="M 360.253906 323.148438 L 377.101562 323.148438 L 377.101562 317.480469 L 360.253906 317.480469 Z M 360.253906 323.148438 "/>
<path style=" stroke:none;fill-rule:evenodd;fill:rgb(49.411765%,80.392157%,73.333333%);fill-opacity:1;" d="M 305.496094 197.859375 L 322.34375 197.859375 L 322.34375 192.191406 L 305.496094 192.191406 Z M 305.496094 197.859375 "/>
<path style=" stroke:none;fill-rule:evenodd;fill:rgb(49.411765%,80.392157%,73.333333%);fill-opacity:1;" d="M 369.613281 138.898438 L 386.460938 138.898438 L 386.460938 133.230469 L 369.613281 133.230469 Z M 369.613281 138.898438 "/>
<path style=" stroke:none;fill-rule:evenodd;fill:rgb(49.411765%,80.392157%,73.333333%);fill-opacity:1;" d="M 308.773438 138.898438 L 325.621094 138.898438 L 325.621094 133.230469 L 308.773438 133.230469 Z M 308.773438 138.898438 "/>
<path style=" stroke:none;fill-rule:evenodd;fill:rgb(21.568627%,65.490196%,85.882353%);fill-opacity:1;" d="M 343.871094 72.566406 L 360.71875 72.566406 L 360.71875 66.898438 L 343.871094 66.898438 Z M 343.871094 72.566406 "/>
<path style=" stroke:none;fill-rule:evenodd;fill:rgb(21.568627%,65.490196%,85.882353%);fill-opacity:1;" d="M 270.394531 323.148438 L 287.242188 323.148438 L 287.242188 317.480469 L 270.394531 317.480469 Z M 270.394531 323.148438 "/>
<path style=" stroke:none;fill-rule:evenodd;fill:rgb(21.568627%,65.490196%,85.882353%);fill-opacity:1;" d="M 312.984375 72.566406 L 329.832031 72.566406 L 329.832031 66.898438 L 312.984375 66.898438 Z M 312.984375 72.566406 "/>
<path style=" stroke:none;fill-rule:evenodd;fill:rgb(49.411765%,80.392157%,73.333333%);fill-opacity:1;" d="M 317.195312 65.195312 L 334.042969 65.195312 L 334.042969 59.527344 L 317.195312 59.527344 Z M 317.195312 65.195312 "/>
<path style=" stroke:none;fill-rule:evenodd;fill:rgb(21.568627%,65.490196%,85.882353%);fill-opacity:1;" d="M 439.34375 308.410156 L 456.191406 308.410156 L 456.191406 302.742188 L 439.34375 302.742188 Z M 439.34375 308.410156 "/>
<path style=" stroke:none;fill-rule:evenodd;fill:rgb(49.411765%,80.392157%,73.333333%);fill-opacity:1;" d="M 363.058594 109.417969 L 379.90625 109.417969 L 379.90625 103.75 L 363.058594 103.75 Z M 363.058594 109.417969 "/>
<path style=" stroke:none;fill-rule:evenodd;fill:rgb(21.568627%,65.490196%,85.882353%);fill-opacity:1;" d="M 298.945312 190.488281 L 315.792969 190.488281 L 315.792969 184.820312 L 298.945312 184.820312 Z M 298.945312 190.488281 "/>
<path style=" stroke:none;fill-rule:evenodd;fill:rgb(49.411765%,80.392157%,73.333333%);fill-opacity:1;" d="M 378.503906 168.378906 L 395.351562 168.378906 L 395.351562 162.710938 L 378.503906 162.710938 Z M 378.503906 168.378906 "/>
<path style=" stroke:none;fill-rule:evenodd;fill:rgb(21.568627%,65.490196%,85.882353%);fill-opacity:1;" d="M 298.476562 146.269531 L 315.324219 146.269531 L 315.324219 140.601562 L 298.476562 140.601562 Z M 298.476562 146.269531 "/>
<path style=" stroke:none;fill-rule:evenodd;fill:rgb(49.411765%,80.392157%,73.333333%);fill-opacity:1;" d="M 351.828125 79.9375 L 368.675781 79.9375 L 368.675781 74.269531 L 351.828125 74.269531 Z M 351.828125 79.9375 "/>
<path style=" stroke:none;fill-rule:evenodd;fill:rgb(49.411765%,80.392157%,73.333333%);fill-opacity:1;" d="M 481.464844 360 L 498.3125 360 L 498.3125 354.332031 L 481.464844 354.332031 Z M 481.464844 360 "/>
<path style=" stroke:none;fill-rule:evenodd;fill:rgb(21.568627%,65.490196%,85.882353%);fill-opacity:1;" d="M 143.101562 323.148438 L 159.949219 323.148438 L 159.949219 317.480469 L 143.101562 317.480469 Z M 143.101562 323.148438 "/>
<path style=" stroke:none;fill-rule:evenodd;fill:rgb(21.568627%,65.490196%,85.882353%);fill-opacity:1;" d="M 366.804688 293.667969 L 383.652344 293.667969 L 383.652344 288 L 366.804688 288 Z M 366.804688 293.667969 "/>
<path style=" stroke:none;fill-rule:evenodd;fill:rgb(21.568627%,65.490196%,85.882353%);fill-opacity:1;" d="M 213.769531 352.628906 L 230.617188 352.628906 L 230.617188 346.960938 L 213.769531 346.960938 Z M 213.769531 352.628906 "/>
<path style=" stroke:none;fill-rule:evenodd;fill:rgb(49.411765%,80.392157%,73.333333%);fill-opacity:1;" d="M 381.78125 183.117188 L 398.628906 183.117188 L 398.628906 177.449219 L 381.78125 177.449219 Z M 381.78125 183.117188 "/>
<path style=" stroke:none;fill-rule:evenodd;fill:rgb(49.411765%,80.392157%,73.333333%);fill-opacity:1;" d="M 353.230469 65.195312 L 370.078125 65.195312 L 370.078125 59.527344 L 353.230469 59.527344 Z M 353.230469 65.195312 "/>
<path style=" stroke:none;fill-rule:evenodd;fill:rgb(21.568627%,65.490196%,85.882353%);fill-opacity:1;" d="M 304.09375 131.527344 L 320.941406 131.527344 L 320.941406 125.859375 L 304.09375 125.859375 Z M 304.09375 131.527344 "/>
<path style=" stroke:none;fill-rule:evenodd;fill:rgb(49.411765%,80.392157%,73.333333%);fill-opacity:1;" d="M 287.242188 183.117188 L 304.089844 183.117188 L 304.089844 177.449219 L 287.242188 177.449219 Z M 287.242188 183.117188 "/>
<path style=" stroke:none;fill-rule:evenodd;fill:rgb(21.568627%,65.490196%,85.882353%);fill-opacity:1;" d="M 421.558594 293.667969 L 438.40625 293.667969 L 438.40625 288 L 421.558594 288 Z M 421.558594 293.667969 "/>
<path style=" stroke:none;fill-rule:evenodd;fill:rgb(49.411765%,80.392157%,73.333333%);fill-opacity:1;" d="M 303.15625 109.417969 L 320.003906 109.417969 L 320.003906 103.75 L 303.15625 103.75 Z M 303.15625 109.417969 "/>
<path style=" stroke:none;fill-rule:evenodd;fill:rgb(49.411765%,80.392157%,73.333333%);fill-opacity:1;" d="M 426.707031 286.300781 L 443.554688 286.300781 L 443.554688 280.632812 L 426.707031 280.632812 Z M 426.707031 286.300781 "/>
<path style=" stroke:none;fill-rule:evenodd;fill:rgb(21.568627%,65.490196%,85.882353%);fill-opacity:1;" d="M 288.648438 175.746094 L 305.496094 175.746094 L 305.496094 170.078125 L 288.648438 170.078125 Z M 288.648438 175.746094 "/>
<path style=" stroke:none;fill-rule:evenodd;fill:rgb(49.411765%,80.392157%,73.333333%);fill-opacity:1;" d="M 304.558594 94.675781 L 321.40625 94.675781 L 321.40625 89.007812 L 304.558594 89.007812 Z M 304.558594 94.675781 "/>
<path style=" stroke:none;fill-rule:evenodd;fill:rgb(49.411765%,80.392157%,73.333333%);fill-opacity:1;" d="M 262.90625 301.039062 L 279.753906 301.039062 L 279.753906 295.371094 L 262.90625 295.371094 Z M 262.90625 301.039062 "/>
<path style=" stroke:none;fill-rule:evenodd;fill:rgb(21.568627%,65.490196%,85.882353%);fill-opacity:1;" d="M 383.183594 161.007812 L 400.03125 161.007812 L 400.03125 155.339844 L 383.183594 155.339844 Z M 383.183594 161.007812 "/>
<path style=" stroke:none;fill-rule:evenodd;fill:rgb(21.568627%,65.490196%,85.882353%);fill-opacity:1;" d="M 291.925781 161.007812 L 308.773438 161.007812 L 308.773438 155.339844 L 291.925781 155.339844 Z M 291.925781 161.007812 "/>
<path style=" stroke:none;fill-rule:evenodd;fill:rgb(49.411765%,80.392157%,73.333333%);fill-opacity:1;" d="M 419.21875 271.558594 L 436.066406 271.558594 L 436.066406 265.890625 L 419.21875 265.890625 Z M 419.21875 271.558594 "/>
<path style=" stroke:none;fill-rule:evenodd;fill:rgb(21.568627%,65.490196%,85.882353%);fill-opacity:1;" d="M 281.628906 249.449219 L 298.476562 249.449219 L 298.476562 243.78125 L 281.628906 243.78125 Z M 281.628906 249.449219 "/>
<path style=" stroke:none;fill-rule:evenodd;fill:rgb(49.411765%,80.392157%,73.333333%);fill-opacity:1;" d="M 539.496094 345.261719 L 556.34375 345.261719 L 556.34375 339.59375 L 539.496094 339.59375 Z M 539.496094 345.261719 "/>
<path style=" stroke:none;fill-rule:evenodd;fill:rgb(21.568627%,65.490196%,85.882353%);fill-opacity:1;" d="M 473.976562 337.890625 L 490.824219 337.890625 L 490.824219 332.222656 L 473.976562 332.222656 Z M 473.976562 337.890625 "/>
<path style=" stroke:none;fill-rule:evenodd;fill:rgb(21.568627%,65.490196%,85.882353%);fill-opacity:1;" d="M 387.863281 205.226562 L 404.710938 205.226562 L 404.710938 199.558594 L 387.863281 199.558594 Z M 387.863281 205.226562 "/>
<path style=" stroke:none;fill-rule:evenodd;fill:rgb(49.411765%,80.392157%,73.333333%);fill-opacity:1;" d="M 271.332031 227.339844 L 288.179688 227.339844 L 288.179688 221.671875 L 271.332031 221.671875 Z M 271.332031 227.339844 "/>
<path style=" stroke:none;fill-rule:evenodd;fill:rgb(49.411765%,80.392157%,73.333333%);fill-opacity:1;" d="M 287.710938 168.378906 L 304.558594 168.378906 L 304.558594 162.710938 L 287.710938 162.710938 Z M 287.710938 168.378906 "/>
<path style=" stroke:none;fill-rule:evenodd;fill:rgb(21.568627%,65.490196%,85.882353%);fill-opacity:1;" d="M 302.6875 87.308594 L 319.535156 87.308594 L 319.535156 81.640625 L 302.6875 81.640625 Z M 302.6875 87.308594 "/>
<path style=" stroke:none;fill-rule:evenodd;fill:rgb(49.411765%,80.392157%,73.333333%);fill-opacity:1;" d="M 365.867188 94.675781 L 382.714844 94.675781 L 382.714844 89.007812 L 365.867188 89.007812 Z M 365.867188 94.675781 "/>
<path style=" stroke:none;fill-rule:evenodd;fill:rgb(21.568627%,65.490196%,85.882353%);fill-opacity:1;" d="M 409.390625 249.449219 L 426.238281 249.449219 L 426.238281 243.78125 L 409.390625 243.78125 Z M 409.390625 249.449219 "/>
<path style=" stroke:none;fill-rule:evenodd;fill:rgb(49.411765%,80.392157%,73.333333%);fill-opacity:1;" d="M 373.824219 153.636719 L 390.671875 153.636719 L 390.671875 147.96875 L 373.824219 147.96875 Z M 373.824219 153.636719 "/>
<path style=" stroke:none;fill-rule:evenodd;fill:rgb(21.568627%,65.490196%,85.882353%);fill-opacity:1;" d="M 363.527344 87.308594 L 380.375 87.308594 L 380.375 81.640625 L 363.527344 81.640625 Z M 363.527344 87.308594 "/>
<path style=" stroke:none;fill-rule:evenodd;fill:rgb(49.411765%,80.392157%,73.333333%);fill-opacity:1;" d="M 254.484375 286.300781 L 271.332031 286.300781 L 271.332031 280.632812 L 254.484375 280.632812 Z M 254.484375 286.300781 "/>
<path style=" stroke:none;fill-rule:evenodd;fill:rgb(21.568627%,65.490196%,85.882353%);fill-opacity:1;" d="M 375.695312 72.566406 L 392.542969 72.566406 L 392.542969 66.898438 L 375.695312 66.898438 Z M 375.695312 72.566406 "/>
<path style=" stroke:none;fill-rule:evenodd;fill:rgb(49.411765%,80.392157%,73.333333%);fill-opacity:1;" d="M 476.316406 330.519531 L 493.164062 330.519531 L 493.164062 324.851562 L 476.316406 324.851562 Z M 476.316406 330.519531 "/>
<path style=" stroke:none;fill-rule:evenodd;fill:rgb(49.411765%,80.392157%,73.333333%);fill-opacity:1;" d="M 425.773438 256.820312 L 442.621094 256.820312 L 442.621094 251.152344 L 425.773438 251.152344 Z M 425.773438 256.820312 "/>
<path style=" stroke:none;fill-rule:evenodd;fill:rgb(49.411765%,80.392157%,73.333333%);fill-opacity:1;" d="M 398.160156 242.078125 L 415.007812 242.078125 L 415.007812 236.410156 L 398.160156 236.410156 Z M 398.160156 242.078125 "/>
<path style=" stroke:none;fill-rule:evenodd;fill:rgb(21.568627%,65.490196%,85.882353%);fill-opacity:1;" d="M 293.796875 116.789062 L 310.644531 116.789062 L 310.644531 111.121094 L 293.796875 111.121094 Z M 293.796875 116.789062 "/>
<path style=" stroke:none;fill-rule:evenodd;fill:rgb(49.411765%,80.392157%,73.333333%);fill-opacity:1;" d="M 380.84375 124.15625 L 397.691406 124.15625 L 397.691406 118.488281 L 380.84375 118.488281 Z M 380.84375 124.15625 "/>
<path style=" stroke:none;fill-rule:evenodd;fill:rgb(21.568627%,65.490196%,85.882353%);fill-opacity:1;" d="M 255.886719 278.929688 L 272.734375 278.929688 L 272.734375 273.261719 L 255.886719 273.261719 Z M 255.886719 278.929688 "/>
<path style=" stroke:none;fill-rule:evenodd;fill:rgb(21.568627%,65.490196%,85.882353%);fill-opacity:1;" d="M 272.734375 219.96875 L 289.582031 219.96875 L 289.582031 214.300781 L 272.734375 214.300781 Z M 272.734375 219.96875 "/>
<path style=" stroke:none;fill-rule:evenodd;fill:rgb(21.568627%,65.490196%,85.882353%);fill-opacity:1;" d="M 403.777344 234.707031 L 420.625 234.707031 L 420.625 229.039062 L 403.777344 229.039062 Z M 403.777344 234.707031 "/>
<g clip-path="url(#clip2)" clip-rule="nonzero">
<path style="fill:none;stroke-width:0.75;stroke-linecap:round;stroke-linejoin:round;stroke:rgb(0%,0%,0%);stroke-opacity:1;stroke-miterlimit:10;" d="M 108 360 L 576 360 "/>
</g>
</g>
</svg>
