<?xml version="1.0" encoding="UTF-8"?>
<svg xmlns="http://www.w3.org/2000/svg" xmlns:xlink="http://www.w3.org/1999/xlink" width="684pt" height="432pt" viewBox="0 0 684 432" version="1.1">
<defs>
<clipPath id="clip1">
  <path d="M 561 200 L 576 200 L 576 207 L 561 207 Z M 561 200 "/>
</clipPath>
<clipPath id="clip2">
  <path d="M 108 206 L 576 206 L 576 208 L 108 208 Z M 108 206 "/>
</clipPath>
</defs>
<g id="surface810">
<path style=" stroke:none;fill-rule:evenodd;fill:rgb(74.509804%,74.509804%,74.509804%);fill-opacity:1;" d="M 574.460938 56.347656 L 574.460938 57.601562 L 574.03125 57.601562 L 574.03125 56.347656 L 572.789062 56.347656 L 572.789062 55.917969 L 574.03125 55.917969 L 574.03125 54.664062 L 574.460938 54.664062 L 574.460938 55.917969 L 575.703125 55.917969 L 575.703125 56.347656 Z M 574.460938 56.347656 "/>
<path style=" stroke:none;fill-rule:evenodd;fill:rgb(74.509804%,74.509804%,74.509804%);fill-opacity:1;" d="M 574.460938 358.21875 L 574.460938 359.472656 L 574.03125 359.472656 L 574.03125 358.21875 L 572.789062 358.21875 L 572.789062 357.789062 L 574.03125 357.789062 L 574.03125 356.539062 L 574.460938 356.539062 L 574.460938 357.789062 L 575.703125 357.789062 L 575.703125 358.21875 Z M 574.460938 358.21875 "/>
<path style=" stroke:none;fill-rule:evenodd;fill:rgb(21.568627%,65.490196%,85.882353%);fill-opacity:1;" d="M 384.121094 206.148438 L 400.96875 206.148438 L 400.96875 200.480469 L 384.121094 200.480469 Z M 384.121094 206.148438 "/>
<path style=" stroke:none;fill-rule:evenodd;fill:rgb(21.568627%,65.490196%,85.882353%);fill-opacity:1;" d="M 305.496094 206.148438 L 322.34375 206.148438 L 322.34375 200.480469 L 305.496094 200.480469 Z M 305.496094 206.148438 "/>
<path style=" stroke:none;fill-rule:evenodd;fill:rgb(21.568627%,65.490196%,85.882353%);fill-opacity:1;" d="M 338.722656 206.148438 L 355.570312 206.148438 L 355.570312 200.480469 L 338.722656 200.480469 Z M 338.722656 206.148438 "/>
<path style=" stroke:none;fill-rule:evenodd;fill:rgb(21.568627%,65.490196%,85.882353%);fill-opacity:1;" d="M 322.34375 198.78125 L 339.191406 198.78125 L 339.191406 193.113281 L 322.34375 193.113281 Z M 322.34375 198.78125 "/>
<path style=" stroke:none;fill-rule:evenodd;fill:rgb(21.568627%,65.490196%,85.882353%);fill-opacity:1;" d="M 343.402344 191.410156 L 360.25 191.410156 L 360.25 185.742188 L 343.402344 185.742188 Z M 343.402344 191.410156 "/>
<path style=" stroke:none;fill-rule:evenodd;fill:rgb(21.568627%,65.490196%,85.882353%);fill-opacity:1;" d="M 295.667969 198.78125 L 312.515625 198.78125 L 312.515625 193.113281 L 295.667969 193.113281 Z M 295.667969 198.78125 "/>
<path style=" stroke:none;fill-rule:evenodd;fill:rgb(21.568627%,65.490196%,85.882353%);fill-opacity:1;" d="M 373.824219 198.78125 L 390.671875 198.78125 L 390.671875 193.113281 L 373.824219 193.113281 Z M 373.824219 198.78125 "/>
<path style=" stroke:none;fill-rule:evenodd;fill:rgb(21.568627%,65.490196%,85.882353%);fill-opacity:1;" d="M 422.964844 206.148438 L 439.8125 206.148438 L 439.8125 200.480469 L 422.964844 200.480469 Z M 422.964844 206.148438 "/>
<path style=" stroke:none;fill-rule:evenodd;fill:rgb(21.568627%,65.490196%,85.882353%);fill-opacity:1;" d="M 284.902344 191.410156 L 301.75 191.410156 L 301.75 185.742188 L 284.902344 185.742188 Z M 284.902344 191.410156 "/>
<path style=" stroke:none;fill-rule:evenodd;fill:rgb(21.568627%,65.490196%,85.882353%);fill-opacity:1;" d="M 345.277344 184.039062 L 362.125 184.039062 L 362.125 178.371094 L 345.277344 178.371094 Z M 345.277344 184.039062 "/>
<path style=" stroke:none;fill-rule:evenodd;fill:rgb(21.568627%,65.490196%,85.882353%);fill-opacity:1;" d="M 258.226562 206.148438 L 275.074219 206.148438 L 275.074219 200.480469 L 258.226562 200.480469 Z M 258.226562 206.148438 "/>
<path style=" stroke:none;fill-rule:evenodd;fill:rgb(21.568627%,65.490196%,85.882353%);fill-opacity:1;" d="M 358.378906 176.667969 L 375.226562 176.667969 L 375.226562 171 L 358.378906 171 Z M 358.378906 176.667969 "/>
<path style=" stroke:none;fill-rule:evenodd;fill:rgb(21.568627%,65.490196%,85.882353%);fill-opacity:1;" d="M 361.65625 169.300781 L 378.503906 169.300781 L 378.503906 163.632812 L 361.65625 163.632812 Z M 361.65625 169.300781 "/>
<path style=" stroke:none;fill-rule:evenodd;fill:rgb(21.568627%,65.490196%,85.882353%);fill-opacity:1;" d="M 143.101562 206.148438 L 159.949219 206.148438 L 159.949219 200.480469 L 143.101562 200.480469 Z M 143.101562 206.148438 "/>
<path style=" stroke:none;fill-rule:evenodd;fill:rgb(21.568627%,65.490196%,85.882353%);fill-opacity:1;" d="M 159.949219 198.78125 L 176.796875 198.78125 L 176.796875 193.113281 L 159.949219 193.113281 Z M 159.949219 198.78125 "/>
<path style=" stroke:none;fill-rule:evenodd;fill:rgb(21.568627%,65.490196%,85.882353%);fill-opacity:1;" d="M 351.828125 161.929688 L 368.675781 161.929688 L 368.675781 156.261719 L 351.828125 156.261719 Z M 351.828125 161.929688 "/>
<path style=" stroke:none;fill-rule:evenodd;fill:rgb(21.568627%,65.490196%,85.882353%);fill-opacity:1;" d="M 213.769531 206.148438 L 230.617188 206.148438 L 230.617188 200.480469 L 213.769531 200.480469 Z M 213.769531 206.148438 "/>
<path style=" stroke:none;fill-rule:evenodd;fill:rgb(21.568627%,65.490196%,85.882353%);fill-opacity:1;" d="M 370.078125 191.410156 L 386.925781 191.410156 L 386.925781 185.742188 L 370.078125 185.742188 Z M 370.078125 191.410156 "/>
<path style=" stroke:none;fill-rule:evenodd;fill:rgb(21.568627%,65.490196%,85.882353%);fill-opacity:1;" d="M 313.921875 191.410156 L 330.769531 191.410156 L 330.769531 185.742188 L 313.921875 185.742188 Z M 313.921875 191.410156 "/>
<path style=" stroke:none;fill-rule:evenodd;fill:rgb(21.568627%,65.490196%,85.882353%);fill-opacity:1;" d="M 339.191406 154.558594 L 356.039062 154.558594 L 356.039062 148.890625 L 339.191406 148.890625 Z M 339.191406 154.558594 "/>
<path style=" stroke:none;fill-rule:evenodd;fill:rgb(21.568627%,65.490196%,85.882353%);fill-opacity:1;" d="M 293.796875 184.039062 L 310.644531 184.039062 L 310.644531 178.371094 L 293.796875 178.371094 Z M 293.796875 184.039062 "/>
<path style=" stroke:none;fill-rule:evenodd;fill:rgb(21.568627%,65.490196%,85.882353%);fill-opacity:1;" d="M 237.167969 198.78125 L 254.015625 198.78125 L 254.015625 193.113281 L 237.167969 193.113281 Z M 237.167969 198.78125 "/>
<path style=" stroke:none;fill-rule:evenodd;fill:rgb(21.568627%,65.490196%,85.882353%);fill-opacity:1;" d="M 320.003906 176.667969 L 336.851562 176.667969 L 336.851562 171 L 320.003906 171 Z M 320.003906 176.667969 "/>
<path style=" stroke:none;fill-rule:evenodd;fill:rgb(21.568627%,65.490196%,85.882353%);fill-opacity:1;" d="M 291.457031 176.667969 L 308.304688 176.667969 L 308.304688 171 L 291.457031 171 Z M 291.457031 176.667969 "/>
<path style=" stroke:none;fill-rule:evenodd;fill:rgb(21.568627%,65.490196%,85.882353%);fill-opacity:1;" d="M 318.132812 169.300781 L 334.980469 169.300781 L 334.980469 163.632812 L 318.132812 163.632812 Z M 318.132812 169.300781 "/>
<path style=" stroke:none;fill-rule:evenodd;fill:rgb(21.568627%,65.490196%,85.882353%);fill-opacity:1;" d="M 310.644531 161.929688 L 327.492188 161.929688 L 327.492188 156.261719 L 310.644531 156.261719 Z M 310.644531 161.929688 "/>
<path style=" stroke:none;fill-rule:evenodd;fill:rgb(21.568627%,65.490196%,85.882353%);fill-opacity:1;" d="M 272.734375 169.300781 L 289.582031 169.300781 L 289.582031 163.632812 L 272.734375 163.632812 Z M 272.734375 169.300781 "/>
<path style=" stroke:none;fill-rule:evenodd;fill:rgb(21.568627%,65.490196%,85.882353%);fill-opacity:1;" d="M 304.09375 154.558594 L 320.941406 154.558594 L 320.941406 148.890625 L 304.09375 148.890625 Z M 304.09375 154.558594 "/>
<path style=" stroke:none;fill-rule:evenodd;fill:rgb(21.568627%,65.490196%,85.882353%);fill-opacity:1;" d="M 355.570312 147.1875 L 372.417969 147.1875 L 372.417969 141.519531 L 355.570312 141.519531 Z M 355.570312 147.1875 "/>
<path style=" stroke:none;fill-rule:evenodd;fill:rgb(21.568627%,65.490196%,85.882353%);fill-opacity:1;" d="M 241.378906 191.410156 L 258.226562 191.410156 L 258.226562 185.742188 L 241.378906 185.742188 Z M 241.378906 191.410156 "/>
<path style=" stroke:none;fill-rule:evenodd;fill:rgb(21.568627%,65.490196%,85.882353%);fill-opacity:1;" d="M 287.710938 147.1875 L 304.558594 147.1875 L 304.558594 141.519531 L 287.710938 141.519531 Z M 287.710938 147.1875 "/>
<path style=" stroke:none;fill-rule:evenodd;fill:rgb(21.568627%,65.490196%,85.882353%);fill-opacity:1;" d="M 321.40625 147.1875 L 338.253906 147.1875 L 338.253906 141.519531 L 321.40625 141.519531 Z M 321.40625 147.1875 "/>
<path style=" stroke:none;fill-rule:evenodd;fill:rgb(21.568627%,65.490196%,85.882353%);fill-opacity:1;" d="M 343.871094 139.820312 L 360.71875 139.820312 L 360.71875 134.152344 L 343.871094 134.152344 Z M 343.871094 139.820312 "/>
<path style=" stroke:none;fill-rule:evenodd;fill:rgb(21.568627%,65.490196%,85.882353%);fill-opacity:1;" d="M 298.476562 139.820312 L 315.324219 139.820312 L 315.324219 134.152344 L 298.476562 134.152344 Z M 298.476562 139.820312 "/>
<path style=" stroke:none;fill-rule:evenodd;fill:rgb(21.568627%,65.490196%,85.882353%);fill-opacity:1;" d="M 317.664062 132.449219 L 334.511719 132.449219 L 334.511719 126.78125 L 317.664062 126.78125 Z M 317.664062 132.449219 "/>
<path style=" stroke:none;fill-rule:evenodd;fill:rgb(21.568627%,65.490196%,85.882353%);fill-opacity:1;" d="M 254.484375 184.039062 L 271.332031 184.039062 L 271.332031 178.371094 L 254.484375 178.371094 Z M 254.484375 184.039062 "/>
<path style=" stroke:none;fill-rule:evenodd;fill:rgb(21.568627%,65.490196%,85.882353%);fill-opacity:1;" d="M 243.253906 176.667969 L 260.101562 176.667969 L 260.101562 171 L 243.253906 171 Z M 243.253906 176.667969 "/>
<path style=" stroke:none;fill-rule:evenodd;fill:rgb(21.568627%,65.490196%,85.882353%);fill-opacity:1;" d="M 311.578125 125.078125 L 328.425781 125.078125 L 328.425781 119.410156 L 311.578125 119.410156 Z M 311.578125 125.078125 "/>
<path style=" stroke:none;fill-rule:evenodd;fill:rgb(21.568627%,65.490196%,85.882353%);fill-opacity:1;" d="M 312.046875 117.707031 L 328.894531 117.707031 L 328.894531 112.039062 L 312.046875 112.039062 Z M 312.046875 117.707031 "/>
<path style=" stroke:none;fill-rule:evenodd;fill:rgb(21.568627%,65.490196%,85.882353%);fill-opacity:1;" d="M 305.027344 110.339844 L 321.875 110.339844 L 321.875 104.671875 L 305.027344 104.671875 Z M 305.027344 110.339844 "/>
<path style=" stroke:none;fill-rule:evenodd;fill:rgb(21.568627%,65.490196%,85.882353%);fill-opacity:1;" d="M 348.550781 132.449219 L 365.398438 132.449219 L 365.398438 126.78125 L 348.550781 126.78125 Z M 348.550781 132.449219 "/>
<path style=" stroke:none;fill-rule:evenodd;fill:rgb(21.568627%,65.490196%,85.882353%);fill-opacity:1;" d="M 334.042969 110.339844 L 350.890625 110.339844 L 350.890625 104.671875 L 334.042969 104.671875 Z M 334.042969 110.339844 "/>
<path style=" stroke:none;fill-rule:evenodd;fill:rgb(21.568627%,65.490196%,85.882353%);fill-opacity:1;" d="M 296.605469 102.96875 L 313.453125 102.96875 L 313.453125 97.300781 L 296.605469 97.300781 Z M 296.605469 102.96875 "/>
<path style=" stroke:none;fill-rule:evenodd;fill:rgb(21.568627%,65.490196%,85.882353%);fill-opacity:1;" d="M 363.058594 125.078125 L 379.90625 125.078125 L 379.90625 119.410156 L 363.058594 119.410156 Z M 363.058594 125.078125 "/>
<path style=" stroke:none;fill-rule:evenodd;fill:rgb(21.568627%,65.490196%,85.882353%);fill-opacity:1;" d="M 269.460938 161.929688 L 286.308594 161.929688 L 286.308594 156.261719 L 269.460938 156.261719 Z M 269.460938 161.929688 "/>
<path style=" stroke:none;fill-rule:evenodd;fill:rgb(21.568627%,65.490196%,85.882353%);fill-opacity:1;" d="M 255.886719 154.558594 L 272.734375 154.558594 L 272.734375 148.890625 L 255.886719 148.890625 Z M 255.886719 154.558594 "/>
<path style=" stroke:none;fill-rule:evenodd;fill:rgb(21.568627%,65.490196%,85.882353%);fill-opacity:1;" d="M 317.195312 95.597656 L 334.042969 95.597656 L 334.042969 89.929688 L 317.195312 89.929688 Z M 317.195312 95.597656 "/>
<path style=" stroke:none;fill-rule:evenodd;fill:rgb(21.568627%,65.490196%,85.882353%);fill-opacity:1;" d="M 293.328125 88.226562 L 310.175781 88.226562 L 310.175781 82.558594 L 293.328125 82.558594 Z M 293.328125 88.226562 "/>
<path style=" stroke:none;fill-rule:evenodd;fill:rgb(21.568627%,65.490196%,85.882353%);fill-opacity:1;" d="M 331.703125 102.96875 L 348.550781 102.96875 L 348.550781 97.300781 L 331.703125 97.300781 Z M 331.703125 102.96875 "/>
<path style=" stroke:none;fill-rule:evenodd;fill:rgb(21.568627%,65.490196%,85.882353%);fill-opacity:1;" d="M 337.789062 88.226562 L 354.636719 88.226562 L 354.636719 82.558594 L 337.789062 82.558594 Z M 337.789062 88.226562 "/>
<path style=" stroke:none;fill-rule:evenodd;fill:rgb(21.568627%,65.490196%,85.882353%);fill-opacity:1;" d="M 340.597656 117.707031 L 357.445312 117.707031 L 357.445312 112.039062 L 340.597656 112.039062 Z M 340.597656 117.707031 "/>
<path style=" stroke:none;fill-rule:evenodd;fill:rgb(21.568627%,65.490196%,85.882353%);fill-opacity:1;" d="M 307.835938 80.859375 L 324.683594 80.859375 L 324.683594 75.191406 L 307.835938 75.191406 Z M 307.835938 80.859375 "/>
<path style=" stroke:none;fill-rule:evenodd;fill:rgb(21.568627%,65.490196%,85.882353%);fill-opacity:1;" d="M 419.6875 198.78125 L 436.535156 198.78125 L 436.535156 193.113281 L 419.6875 193.113281 Z M 419.6875 198.78125 "/>
<path style=" stroke:none;fill-rule:evenodd;fill:rgb(21.568627%,65.490196%,85.882353%);fill-opacity:1;" d="M 294.265625 73.488281 L 311.113281 73.488281 L 311.113281 67.820312 L 294.265625 67.820312 Z M 294.265625 73.488281 "/>
<path style=" stroke:none;fill-rule:evenodd;fill:rgb(21.568627%,65.490196%,85.882353%);fill-opacity:1;" d="M 290.519531 132.449219 L 307.367188 132.449219 L 307.367188 126.78125 L 290.519531 126.78125 Z M 290.519531 132.449219 "/>
<path style=" stroke:none;fill-rule:evenodd;fill:rgb(21.568627%,65.490196%,85.882353%);fill-opacity:1;" d="M 310.175781 66.117188 L 327.023438 66.117188 L 327.023438 60.449219 L 310.175781 60.449219 Z M 310.175781 66.117188 "/>
<path style=" stroke:none;fill-rule:evenodd;fill:rgb(21.568627%,65.490196%,85.882353%);fill-opacity:1;" d="M 280.222656 125.078125 L 297.070312 125.078125 L 297.070312 119.410156 L 280.222656 119.410156 Z M 280.222656 125.078125 "/>
<path style=" stroke:none;fill-rule:evenodd;fill:rgb(21.568627%,65.490196%,85.882353%);fill-opacity:1;" d="M 276.011719 117.707031 L 292.859375 117.707031 L 292.859375 112.039062 L 276.011719 112.039062 Z M 276.011719 117.707031 "/>
<path style=" stroke:none;fill-rule:evenodd;fill:rgb(21.568627%,65.490196%,85.882353%);fill-opacity:1;" d="M 374.761719 184.039062 L 391.609375 184.039062 L 391.609375 178.371094 L 374.761719 178.371094 Z M 374.761719 184.039062 "/>
<path style=" stroke:none;fill-rule:evenodd;fill:rgb(21.568627%,65.490196%,85.882353%);fill-opacity:1;" d="M 281.160156 95.597656 L 298.007812 95.597656 L 298.007812 89.929688 L 281.160156 89.929688 Z M 281.160156 95.597656 "/>
<path style=" stroke:none;fill-rule:evenodd;fill:rgb(21.568627%,65.490196%,85.882353%);fill-opacity:1;" d="M 332.640625 73.488281 L 349.488281 73.488281 L 349.488281 67.820312 L 332.640625 67.820312 Z M 332.640625 73.488281 "/>
<path style=" stroke:none;fill-rule:evenodd;fill:rgb(21.568627%,65.490196%,85.882353%);fill-opacity:1;" d="M 281.628906 66.117188 L 298.476562 66.117188 L 298.476562 60.449219 L 281.628906 60.449219 Z M 281.628906 66.117188 "/>
<path style=" stroke:none;fill-rule:evenodd;fill:rgb(21.568627%,65.490196%,85.882353%);fill-opacity:1;" d="M 253.546875 147.1875 L 270.394531 147.1875 L 270.394531 141.519531 L 253.546875 141.519531 Z M 253.546875 147.1875 "/>
<path style=" stroke:none;fill-rule:evenodd;fill:rgb(21.568627%,65.490196%,85.882353%);fill-opacity:1;" d="M 336.382812 80.859375 L 353.230469 80.859375 L 353.230469 75.191406 L 336.382812 75.191406 Z M 336.382812 80.859375 "/>
<g clip-path="url(#clip1)" clip-rule="nonzero">
<path style=" stroke:none;fill-rule:evenodd;fill:rgb(21.568627%,65.490196%,85.882353%);fill-opacity:1;" d="M 561.492188 206.148438 L 578.339844 206.148438 L 578.339844 200.480469 L 561.492188 200.480469 Z M 561.492188 206.148438 "/>
</g>
<path style=" stroke:none;fill-rule:evenodd;fill:rgb(21.568627%,65.490196%,85.882353%);fill-opacity:1;" d="M 349.488281 95.597656 L 366.335938 95.597656 L 366.335938 89.929688 L 349.488281 89.929688 Z M 349.488281 95.597656 "/>
<path style=" stroke:none;fill-rule:evenodd;fill:rgb(21.568627%,65.490196%,85.882353%);fill-opacity:1;" d="M 275.542969 110.339844 L 292.390625 110.339844 L 292.390625 104.671875 L 275.542969 104.671875 Z M 275.542969 110.339844 "/>
<path style=" stroke:none;fill-rule:evenodd;fill:rgb(21.568627%,65.490196%,85.882353%);fill-opacity:1;" d="M 142.632812 191.410156 L 159.480469 191.410156 L 159.480469 185.742188 L 142.632812 185.742188 Z M 142.632812 191.410156 "/>
<path style=" stroke:none;fill-rule:evenodd;fill:rgb(21.568627%,65.490196%,85.882353%);fill-opacity:1;" d="M 262.90625 139.820312 L 279.753906 139.820312 L 279.753906 134.152344 L 262.90625 134.152344 Z M 262.90625 139.820312 "/>
<path style=" stroke:none;fill-rule:evenodd;fill:rgb(21.568627%,65.490196%,85.882353%);fill-opacity:1;" d="M 339.660156 66.117188 L 356.507812 66.117188 L 356.507812 60.449219 L 339.660156 60.449219 Z M 339.660156 66.117188 "/>
<path style=" stroke:none;fill-rule:evenodd;fill:rgb(21.568627%,65.490196%,85.882353%);fill-opacity:1;" d="M 399.097656 191.410156 L 415.945312 191.410156 L 415.945312 185.742188 L 399.097656 185.742188 Z M 399.097656 191.410156 "/>
<path style=" stroke:none;fill-rule:evenodd;fill:rgb(21.568627%,65.490196%,85.882353%);fill-opacity:1;" d="M 270.394531 80.859375 L 287.242188 80.859375 L 287.242188 75.191406 L 270.394531 75.191406 Z M 270.394531 80.859375 "/>
<path style=" stroke:none;fill-rule:evenodd;fill:rgb(21.568627%,65.490196%,85.882353%);fill-opacity:1;" d="M 381.3125 161.929688 L 398.160156 161.929688 L 398.160156 156.261719 L 381.3125 156.261719 Z M 381.3125 161.929688 "/>
<path style=" stroke:none;fill-rule:evenodd;fill:rgb(21.568627%,65.490196%,85.882353%);fill-opacity:1;" d="M 154.332031 184.039062 L 171.179688 184.039062 L 171.179688 178.371094 L 154.332031 178.371094 Z M 154.332031 184.039062 "/>
<path style=" stroke:none;fill-rule:evenodd;fill:rgb(21.568627%,65.490196%,85.882353%);fill-opacity:1;" d="M 461.808594 206.148438 L 478.65625 206.148438 L 478.65625 200.480469 L 461.808594 200.480469 Z M 461.808594 206.148438 "/>
<path style=" stroke:none;fill-rule:evenodd;fill:rgb(21.568627%,65.490196%,85.882353%);fill-opacity:1;" d="M 369.613281 154.558594 L 386.460938 154.558594 L 386.460938 148.890625 L 369.613281 148.890625 Z M 369.613281 154.558594 "/>
<path style=" stroke:none;fill-rule:evenodd;fill:rgb(21.568627%,65.490196%,85.882353%);fill-opacity:1;" d="M 160.882812 176.667969 L 177.730469 176.667969 L 177.730469 171 L 160.882812 171 Z M 160.882812 176.667969 "/>
<path style=" stroke:none;fill-rule:evenodd;fill:rgb(49.411765%,80.392157%,73.333333%);fill-opacity:1;" d="M 348.085938 213.519531 L 364.933594 213.519531 L 364.933594 207.851562 L 348.085938 207.851562 Z M 348.085938 213.519531 "/>
<path style=" stroke:none;fill-rule:evenodd;fill:rgb(49.411765%,80.392157%,73.333333%);fill-opacity:1;" d="M 360.253906 220.890625 L 377.101562 220.890625 L 377.101562 215.222656 L 360.253906 215.222656 Z M 360.253906 220.890625 "/>
<path style=" stroke:none;fill-rule:evenodd;fill:rgb(49.411765%,80.392157%,73.333333%);fill-opacity:1;" d="M 381.78125 213.519531 L 398.628906 213.519531 L 398.628906 207.851562 L 381.78125 207.851562 Z M 381.78125 213.519531 "/>
<path style=" stroke:none;fill-rule:evenodd;fill:rgb(49.411765%,80.392157%,73.333333%);fill-opacity:1;" d="M 387.394531 220.890625 L 404.242188 220.890625 L 404.242188 215.222656 L 387.394531 215.222656 Z M 387.394531 220.890625 "/>
<path style=" stroke:none;fill-rule:evenodd;fill:rgb(49.411765%,80.392157%,73.333333%);fill-opacity:1;" d="M 393.949219 228.261719 L 410.796875 228.261719 L 410.796875 222.59375 L 393.949219 222.59375 Z M 393.949219 228.261719 "/>
<path style=" stroke:none;fill-rule:evenodd;fill:rgb(49.411765%,80.392157%,73.333333%);fill-opacity:1;" d="M 347.617188 228.261719 L 364.464844 228.261719 L 364.464844 222.59375 L 347.617188 222.59375 Z M 347.617188 228.261719 "/>
<path style=" stroke:none;fill-rule:evenodd;fill:rgb(49.411765%,80.392157%,73.333333%);fill-opacity:1;" d="M 331.703125 220.890625 L 348.550781 220.890625 L 348.550781 215.222656 L 331.703125 215.222656 Z M 331.703125 220.890625 "/>
<path style=" stroke:none;fill-rule:evenodd;fill:rgb(49.411765%,80.392157%,73.333333%);fill-opacity:1;" d="M 368.207031 235.628906 L 385.054688 235.628906 L 385.054688 229.960938 L 368.207031 229.960938 Z M 368.207031 235.628906 "/>
<path style=" stroke:none;fill-rule:evenodd;fill:rgb(49.411765%,80.392157%,73.333333%);fill-opacity:1;" d="M 535.753906 213.519531 L 552.601562 213.519531 L 552.601562 207.851562 L 535.753906 207.851562 Z M 535.753906 213.519531 "/>
<path style=" stroke:none;fill-rule:evenodd;fill:rgb(49.411765%,80.392157%,73.333333%);fill-opacity:1;" d="M 353.699219 243 L 370.546875 243 L 370.546875 237.332031 L 353.699219 237.332031 Z M 353.699219 243 "/>
<path style=" stroke:none;fill-rule:evenodd;fill:rgb(49.411765%,80.392157%,73.333333%);fill-opacity:1;" d="M 354.167969 250.371094 L 371.015625 250.371094 L 371.015625 244.703125 L 354.167969 244.703125 Z M 354.167969 250.371094 "/>
<path style=" stroke:none;fill-rule:evenodd;fill:rgb(49.411765%,80.392157%,73.333333%);fill-opacity:1;" d="M 318.601562 213.519531 L 335.449219 213.519531 L 335.449219 207.851562 L 318.601562 207.851562 Z M 318.601562 213.519531 "/>
<path style=" stroke:none;fill-rule:evenodd;fill:rgb(49.411765%,80.392157%,73.333333%);fill-opacity:1;" d="M 350.425781 257.738281 L 367.273438 257.738281 L 367.273438 252.070312 L 350.425781 252.070312 Z M 350.425781 257.738281 "/>
<path style=" stroke:none;fill-rule:evenodd;fill:rgb(49.411765%,80.392157%,73.333333%);fill-opacity:1;" d="M 426.707031 213.519531 L 443.554688 213.519531 L 443.554688 207.851562 L 426.707031 207.851562 Z M 426.707031 213.519531 "/>
<path style=" stroke:none;fill-rule:evenodd;fill:rgb(49.411765%,80.392157%,73.333333%);fill-opacity:1;" d="M 421.558594 220.890625 L 438.40625 220.890625 L 438.40625 215.222656 L 421.558594 215.222656 Z M 421.558594 220.890625 "/>
<path style=" stroke:none;fill-rule:evenodd;fill:rgb(49.411765%,80.392157%,73.333333%);fill-opacity:1;" d="M 380.84375 243 L 397.691406 243 L 397.691406 237.332031 L 380.84375 237.332031 Z M 380.84375 243 "/>
<path style=" stroke:none;fill-rule:evenodd;fill:rgb(49.411765%,80.392157%,73.333333%);fill-opacity:1;" d="M 350.890625 265.109375 L 367.738281 265.109375 L 367.738281 259.441406 L 350.890625 259.441406 Z M 350.890625 265.109375 "/>
<path style=" stroke:none;fill-rule:evenodd;fill:rgb(49.411765%,80.392157%,73.333333%);fill-opacity:1;" d="M 366.804688 272.480469 L 383.652344 272.480469 L 383.652344 266.8125 L 366.804688 266.8125 Z M 366.804688 272.480469 "/>
<path style=" stroke:none;fill-rule:evenodd;fill:rgb(49.411765%,80.392157%,73.333333%);fill-opacity:1;" d="M 409.390625 235.628906 L 426.238281 235.628906 L 426.238281 229.960938 L 409.390625 229.960938 Z M 409.390625 235.628906 "/>
<path style=" stroke:none;fill-rule:evenodd;fill:rgb(49.411765%,80.392157%,73.333333%);fill-opacity:1;" d="M 319.535156 228.261719 L 336.382812 228.261719 L 336.382812 222.59375 L 319.535156 222.59375 Z M 319.535156 228.261719 "/>
<path style=" stroke:none;fill-rule:evenodd;fill:rgb(49.411765%,80.392157%,73.333333%);fill-opacity:1;" d="M 343.871094 279.851562 L 360.71875 279.851562 L 360.71875 274.183594 L 343.871094 274.183594 Z M 343.871094 279.851562 "/>
<path style=" stroke:none;fill-rule:evenodd;fill:rgb(49.411765%,80.392157%,73.333333%);fill-opacity:1;" d="M 383.183594 250.371094 L 400.03125 250.371094 L 400.03125 244.703125 L 383.183594 244.703125 Z M 383.183594 250.371094 "/>
<path style=" stroke:none;fill-rule:evenodd;fill:rgb(49.411765%,80.392157%,73.333333%);fill-opacity:1;" d="M 355.570312 287.21875 L 372.417969 287.21875 L 372.417969 281.550781 L 355.570312 281.550781 Z M 355.570312 287.21875 "/>
<path style=" stroke:none;fill-rule:evenodd;fill:rgb(49.411765%,80.392157%,73.333333%);fill-opacity:1;" d="M 450.109375 220.890625 L 466.957031 220.890625 L 466.957031 215.222656 L 450.109375 215.222656 Z M 450.109375 220.890625 "/>
<path style=" stroke:none;fill-rule:evenodd;fill:rgb(49.411765%,80.392157%,73.333333%);fill-opacity:1;" d="M 213.769531 213.519531 L 230.617188 213.519531 L 230.617188 207.851562 L 213.769531 207.851562 Z M 213.769531 213.519531 "/>
<path style=" stroke:none;fill-rule:evenodd;fill:rgb(49.411765%,80.392157%,73.333333%);fill-opacity:1;" d="M 387.863281 257.738281 L 404.710938 257.738281 L 404.710938 252.070312 L 387.863281 252.070312 Z M 387.863281 257.738281 "/>
<path style=" stroke:none;fill-rule:evenodd;fill:rgb(49.411765%,80.392157%,73.333333%);fill-opacity:1;" d="M 392.074219 265.109375 L 408.921875 265.109375 L 408.921875 259.441406 L 392.074219 259.441406 Z M 392.074219 265.109375 "/>
<path style=" stroke:none;fill-rule:evenodd;fill:rgb(49.411765%,80.392157%,73.333333%);fill-opacity:1;" d="M 303.15625 220.890625 L 320.003906 220.890625 L 320.003906 215.222656 L 303.15625 215.222656 Z M 303.15625 220.890625 "/>
<path style=" stroke:none;fill-rule:evenodd;fill:rgb(49.411765%,80.392157%,73.333333%);fill-opacity:1;" d="M 345.277344 294.589844 L 362.125 294.589844 L 362.125 288.921875 L 345.277344 288.921875 Z M 345.277344 294.589844 "/>
<path style=" stroke:none;fill-rule:evenodd;fill:rgb(49.411765%,80.392157%,73.333333%);fill-opacity:1;" d="M 378.503906 279.851562 L 395.351562 279.851562 L 395.351562 274.183594 L 378.503906 274.183594 Z M 378.503906 279.851562 "/>
<path style=" stroke:none;fill-rule:evenodd;fill:rgb(49.411765%,80.392157%,73.333333%);fill-opacity:1;" d="M 334.042969 235.628906 L 350.890625 235.628906 L 350.890625 229.960938 L 334.042969 229.960938 Z M 334.042969 235.628906 "/>
<path style=" stroke:none;fill-rule:evenodd;fill:rgb(49.411765%,80.392157%,73.333333%);fill-opacity:1;" d="M 476.316406 213.519531 L 493.164062 213.519531 L 493.164062 207.851562 L 476.316406 207.851562 Z M 476.316406 213.519531 "/>
<path style=" stroke:none;fill-rule:evenodd;fill:rgb(49.411765%,80.392157%,73.333333%);fill-opacity:1;" d="M 382.714844 287.21875 L 399.5625 287.21875 L 399.5625 281.550781 L 382.714844 281.550781 Z M 382.714844 287.21875 "/>
<path style=" stroke:none;fill-rule:evenodd;fill:rgb(49.411765%,80.392157%,73.333333%);fill-opacity:1;" d="M 356.039062 301.960938 L 372.886719 301.960938 L 372.886719 296.292969 L 356.039062 296.292969 Z M 356.039062 301.960938 "/>
<path style=" stroke:none;fill-rule:evenodd;fill:rgb(49.411765%,80.392157%,73.333333%);fill-opacity:1;" d="M 342.46875 309.332031 L 359.316406 309.332031 L 359.316406 303.664062 L 342.46875 303.664062 Z M 342.46875 309.332031 "/>
<path style=" stroke:none;fill-rule:evenodd;fill:rgb(49.411765%,80.392157%,73.333333%);fill-opacity:1;" d="M 391.609375 294.589844 L 408.457031 294.589844 L 408.457031 288.921875 L 391.609375 288.921875 Z M 391.609375 294.589844 "/>
<path style=" stroke:none;fill-rule:evenodd;fill:rgb(49.411765%,80.392157%,73.333333%);fill-opacity:1;" d="M 375.226562 309.332031 L 392.074219 309.332031 L 392.074219 303.664062 L 375.226562 303.664062 Z M 375.226562 309.332031 "/>
<path style=" stroke:none;fill-rule:evenodd;fill:rgb(49.411765%,80.392157%,73.333333%);fill-opacity:1;" d="M 444.023438 228.261719 L 460.871094 228.261719 L 460.871094 222.59375 L 444.023438 222.59375 Z M 444.023438 228.261719 "/>
<path style=" stroke:none;fill-rule:evenodd;fill:rgb(49.411765%,80.392157%,73.333333%);fill-opacity:1;" d="M 353.230469 316.699219 L 370.078125 316.699219 L 370.078125 311.03125 L 353.230469 311.03125 Z M 353.230469 316.699219 "/>
<path style=" stroke:none;fill-rule:evenodd;fill:rgb(49.411765%,80.392157%,73.333333%);fill-opacity:1;" d="M 369.144531 324.070312 L 385.992188 324.070312 L 385.992188 318.402344 L 369.144531 318.402344 Z M 369.144531 324.070312 "/>
<path style=" stroke:none;fill-rule:evenodd;fill:rgb(49.411765%,80.392157%,73.333333%);fill-opacity:1;" d="M 337.789062 272.480469 L 354.636719 272.480469 L 354.636719 266.8125 L 337.789062 266.8125 Z M 337.789062 272.480469 "/>
<path style=" stroke:none;fill-rule:evenodd;fill:rgb(49.411765%,80.392157%,73.333333%);fill-opacity:1;" d="M 352.296875 331.441406 L 369.144531 331.441406 L 369.144531 325.773438 L 352.296875 325.773438 Z M 352.296875 331.441406 "/>
<path style=" stroke:none;fill-rule:evenodd;fill:rgb(49.411765%,80.392157%,73.333333%);fill-opacity:1;" d="M 365.867188 338.8125 L 382.714844 338.8125 L 382.714844 333.144531 L 365.867188 333.144531 Z M 365.867188 338.8125 "/>
<path style=" stroke:none;fill-rule:evenodd;fill:rgb(49.411765%,80.392157%,73.333333%);fill-opacity:1;" d="M 287.242188 213.519531 L 304.089844 213.519531 L 304.089844 207.851562 L 287.242188 207.851562 Z M 287.242188 213.519531 "/>
<path style=" stroke:none;fill-rule:evenodd;fill:rgb(49.411765%,80.392157%,73.333333%);fill-opacity:1;" d="M 396.757812 272.480469 L 413.605469 272.480469 L 413.605469 266.8125 L 396.757812 266.8125 Z M 396.757812 272.480469 "/>
<path style=" stroke:none;fill-rule:evenodd;fill:rgb(49.411765%,80.392157%,73.333333%);fill-opacity:1;" d="M 473.976562 228.261719 L 490.824219 228.261719 L 490.824219 222.59375 L 473.976562 222.59375 Z M 473.976562 228.261719 "/>
<path style=" stroke:none;fill-rule:evenodd;fill:rgb(49.411765%,80.392157%,73.333333%);fill-opacity:1;" d="M 351.828125 346.179688 L 368.675781 346.179688 L 368.675781 340.511719 L 351.828125 340.511719 Z M 351.828125 346.179688 "/>
<path style=" stroke:none;fill-rule:evenodd;fill:rgb(49.411765%,80.392157%,73.333333%);fill-opacity:1;" d="M 362.59375 353.550781 L 379.441406 353.550781 L 379.441406 347.882812 L 362.59375 347.882812 Z M 362.59375 353.550781 "/>
<path style=" stroke:none;fill-rule:evenodd;fill:rgb(49.411765%,80.392157%,73.333333%);fill-opacity:1;" d="M 321.40625 243 L 338.253906 243 L 338.253906 237.332031 L 321.40625 237.332031 Z M 321.40625 243 "/>
<path style=" stroke:none;fill-rule:evenodd;fill:rgb(49.411765%,80.392157%,73.333333%);fill-opacity:1;" d="M 160.882812 213.519531 L 177.730469 213.519531 L 177.730469 207.851562 L 160.882812 207.851562 Z M 160.882812 213.519531 "/>
<path style=" stroke:none;fill-rule:evenodd;fill:rgb(49.411765%,80.392157%,73.333333%);fill-opacity:1;" d="M 330.769531 324.070312 L 347.617188 324.070312 L 347.617188 318.402344 L 330.769531 318.402344 Z M 330.769531 324.070312 "/>
<path style=" stroke:none;fill-rule:evenodd;fill:rgb(49.411765%,80.392157%,73.333333%);fill-opacity:1;" d="M 324.214844 250.371094 L 341.0625 250.371094 L 341.0625 244.703125 L 324.214844 244.703125 Z M 324.214844 250.371094 "/>
<path style=" stroke:none;fill-rule:evenodd;fill:rgb(49.411765%,80.392157%,73.333333%);fill-opacity:1;" d="M 336.851562 338.8125 L 353.699219 338.8125 L 353.699219 333.144531 L 336.851562 333.144531 Z M 336.851562 338.8125 "/>
<path style=" stroke:none;fill-rule:evenodd;fill:rgb(49.411765%,80.392157%,73.333333%);fill-opacity:1;" d="M 385.523438 301.960938 L 402.371094 301.960938 L 402.371094 296.292969 L 385.523438 296.292969 Z M 385.523438 301.960938 "/>
<path style=" stroke:none;fill-rule:evenodd;fill:rgb(49.411765%,80.392157%,73.333333%);fill-opacity:1;" d="M 400.03125 316.699219 L 416.878906 316.699219 L 416.878906 311.03125 L 400.03125 311.03125 Z M 400.03125 316.699219 "/>
<path style=" stroke:none;fill-rule:evenodd;fill:rgb(49.411765%,80.392157%,73.333333%);fill-opacity:1;" d="M 407.050781 279.851562 L 423.898438 279.851562 L 423.898438 274.183594 L 407.050781 274.183594 Z M 407.050781 279.851562 "/>
<path style=" stroke:none;fill-rule:evenodd;fill:rgb(49.411765%,80.392157%,73.333333%);fill-opacity:1;" d="M 425.773438 243 L 442.621094 243 L 442.621094 237.332031 L 425.773438 237.332031 Z M 425.773438 243 "/>
<path style=" stroke:none;fill-rule:evenodd;fill:rgb(49.411765%,80.392157%,73.333333%);fill-opacity:1;" d="M 410.796875 250.371094 L 427.644531 250.371094 L 427.644531 244.703125 L 410.796875 244.703125 Z M 410.796875 250.371094 "/>
<path style=" stroke:none;fill-rule:evenodd;fill:rgb(49.411765%,80.392157%,73.333333%);fill-opacity:1;" d="M 405.648438 309.332031 L 422.496094 309.332031 L 422.496094 303.664062 L 405.648438 303.664062 Z M 405.648438 309.332031 "/>
<path style=" stroke:none;fill-rule:evenodd;fill:rgb(49.411765%,80.392157%,73.333333%);fill-opacity:1;" d="M 449.640625 235.628906 L 466.488281 235.628906 L 466.488281 229.960938 L 449.640625 229.960938 Z M 449.640625 235.628906 "/>
<path style=" stroke:none;fill-rule:evenodd;fill:rgb(49.411765%,80.392157%,73.333333%);fill-opacity:1;" d="M 403.777344 324.070312 L 420.625 324.070312 L 420.625 318.402344 L 403.777344 318.402344 Z M 403.777344 324.070312 "/>
<path style=" stroke:none;fill-rule:evenodd;fill:rgb(49.411765%,80.392157%,73.333333%);fill-opacity:1;" d="M 418.753906 257.738281 L 435.601562 257.738281 L 435.601562 252.070312 L 418.753906 252.070312 Z M 418.753906 257.738281 "/>
<path style=" stroke:none;fill-rule:evenodd;fill:rgb(49.411765%,80.392157%,73.333333%);fill-opacity:1;" d="M 411.730469 287.21875 L 428.578125 287.21875 L 428.578125 281.550781 L 411.730469 281.550781 Z M 411.730469 287.21875 "/>
<path style=" stroke:none;fill-rule:evenodd;fill:rgb(49.411765%,80.392157%,73.333333%);fill-opacity:1;" d="M 401.902344 331.441406 L 418.75 331.441406 L 418.75 325.773438 L 401.902344 325.773438 Z M 401.902344 331.441406 "/>
<path style=" stroke:none;fill-rule:evenodd;fill:rgb(49.411765%,80.392157%,73.333333%);fill-opacity:1;" d="M 313.453125 257.738281 L 330.300781 257.738281 L 330.300781 252.070312 L 313.453125 252.070312 Z M 313.453125 257.738281 "/>
<path style=" stroke:none;fill-rule:evenodd;fill:rgb(49.411765%,80.392157%,73.333333%);fill-opacity:1;" d="M 332.640625 353.550781 L 349.488281 353.550781 L 349.488281 347.882812 L 332.640625 347.882812 Z M 332.640625 353.550781 "/>
<path style=" stroke:none;fill-rule:evenodd;fill:rgb(49.411765%,80.392157%,73.333333%);fill-opacity:1;" d="M 327.960938 287.21875 L 344.808594 287.21875 L 344.808594 281.550781 L 327.960938 281.550781 Z M 327.960938 287.21875 "/>
<path style=" stroke:none;fill-rule:evenodd;fill:rgb(49.411765%,80.392157%,73.333333%);fill-opacity:1;" d="M 298.007812 235.628906 L 314.855469 235.628906 L 314.855469 229.960938 L 298.007812 229.960938 Z M 298.007812 235.628906 "/>
<path style=" stroke:none;fill-rule:evenodd;fill:rgb(49.411765%,80.392157%,73.333333%);fill-opacity:1;" d="M 481.464844 220.890625 L 498.3125 220.890625 L 498.3125 215.222656 L 481.464844 215.222656 Z M 481.464844 220.890625 "/>
<path style=" stroke:none;fill-rule:evenodd;fill:rgb(49.411765%,80.392157%,73.333333%);fill-opacity:1;" d="M 439.34375 250.371094 L 456.191406 250.371094 L 456.191406 244.703125 L 439.34375 244.703125 Z M 439.34375 250.371094 "/>
<path style=" stroke:none;fill-rule:evenodd;fill:rgb(49.411765%,80.392157%,73.333333%);fill-opacity:1;" d="M 282.5625 228.261719 L 299.410156 228.261719 L 299.410156 222.59375 L 282.5625 222.59375 Z M 282.5625 228.261719 "/>
<path style=" stroke:none;fill-rule:evenodd;fill:rgb(49.411765%,80.392157%,73.333333%);fill-opacity:1;" d="M 398.160156 338.8125 L 415.007812 338.8125 L 415.007812 333.144531 L 398.160156 333.144531 Z M 398.160156 338.8125 "/>
<path style=" stroke:none;fill-rule:evenodd;fill:rgb(49.411765%,80.392157%,73.333333%);fill-opacity:1;" d="M 399.5625 346.179688 L 416.410156 346.179688 L 416.410156 340.511719 L 399.5625 340.511719 Z M 399.5625 346.179688 "/>
<path style=" stroke:none;fill-rule:evenodd;fill:rgb(49.411765%,80.392157%,73.333333%);fill-opacity:1;" d="M 419.21875 265.109375 L 436.066406 265.109375 L 436.066406 259.441406 L 419.21875 259.441406 Z M 419.21875 265.109375 "/>
<path style=" stroke:none;fill-rule:evenodd;fill:rgb(49.411765%,80.392157%,73.333333%);fill-opacity:1;" d="M 539.496094 220.890625 L 556.34375 220.890625 L 556.34375 215.222656 L 539.496094 215.222656 Z M 539.496094 220.890625 "/>
<g clip-path="url(#clip2)" clip-rule="nonzero">
<path style="fill:none;stroke-width:0.75;stroke-linecap:round;stroke-linejoin:round;stroke:rgb(74.509804%,74.509804%,74.509804%);stroke-opacity:1;stroke-miterlimit:10;" d="M 108 207 L 576 207 "/>
</g>
</g>
</svg>
