<?xml version="1.0" encoding="UTF-8"?>
<svg xmlns="http://www.w3.org/2000/svg" xmlns:xlink="http://www.w3.org/1999/xlink" width="590pt" height="504pt" viewBox="0 0 590 504" version="1.1">
<g id="surface381">
<path style=" stroke:none;fill-rule:nonzero;fill:rgb(29.019608%,8.627451%,55.686275%);fill-opacity:1;" d="M 212.199219 216 L 359.800781 259.199219 L 367 288 L 460.601562 324 L 125.800781 262.800781 L 118.601562 237.601562 Z M 212.199219 216 "/>
<path style=" stroke:none;fill-rule:nonzero;fill:rgb(61.568627%,15.686275%,69.019608%);fill-opacity:1;" d="M 359.800781 259.199219 L 367 288 L 460.601562 324 L 388.601562 140.398438 L 341.800781 122.398438 Z M 359.800781 259.199219 "/>
<path style=" stroke:none;fill-rule:nonzero;fill:rgb(80.784314%,57.647059%,85.098039%);fill-opacity:1;" d="M 57.398438 241.199219 L 460.601562 324 L 241 435.601562 Z M 57.398438 241.199219 "/>
<path style=" stroke:none;fill-rule:nonzero;fill:rgb(73.333333%,41.568627%,78.823529%);fill-opacity:1;" d="M 241 435.601562 L 460.601562 324 L 403 435.601562 Z M 241 435.601562 "/>
<path style=" stroke:none;fill-rule:nonzero;fill:rgb(29.019608%,8.627451%,55.686275%);fill-opacity:1;" d="M 341.800781 122.398438 L 388.601562 140.398438 L 381.398438 115.199219 Z M 341.800781 122.398438 "/>
<path style=" stroke:none;fill-rule:nonzero;fill:rgb(48.235294%,12.156863%,62.745098%);fill-opacity:1;" d="M 118.601562 237.601562 L 212.199219 216 L 97 187.199219 Z M 118.601562 237.601562 "/>
<path style=" stroke:none;fill-rule:nonzero;fill:rgb(73.333333%,41.568627%,78.823529%);fill-opacity:1;" d="M 341.800781 122.398438 L 381.398438 115.199219 L 385 68.398438 Z M 341.800781 122.398438 "/>
<path style=" stroke:none;fill-rule:nonzero;fill:rgb(80.784314%,57.647059%,85.098039%);fill-opacity:1;" d="M 381.398438 115.199219 L 385 68.398438 L 475 115.199219 Z M 381.398438 115.199219 "/>
</g>
</svg>
