<?xml version="1.0" encoding="UTF-8"?>
<svg xmlns="http://www.w3.org/2000/svg" xmlns:xlink="http://www.w3.org/1999/xlink" width="590pt" height="504pt" viewBox="0 0 590 504" version="1.1">
<g id="surface231">
<path style="fill-rule:nonzero;fill:rgb(0%,0%,0%);fill-opacity:1;stroke-width:0.75;stroke-linecap:round;stroke-linejoin:round;stroke:rgb(0%,0%,0%);stroke-opacity:1;stroke-miterlimit:10;" d="M 273.398438 216 C 273.398438 219.976562 270.175781 223.199219 266.199219 223.199219 C 262.222656 223.199219 259 219.976562 259 216 C 259 212.023438 262.222656 208.800781 266.199219 208.800781 C 270.175781 208.800781 273.398438 212.023438 273.398438 216 "/>
<path style="fill-rule:nonzero;fill:rgb(0%,0%,0%);fill-opacity:1;stroke-width:0.75;stroke-linecap:round;stroke-linejoin:round;stroke:rgb(0%,0%,0%);stroke-opacity:1;stroke-miterlimit:10;" d="M 331 216 C 331 219.976562 327.777344 223.199219 323.800781 223.199219 C 319.824219 223.199219 316.601562 219.976562 316.601562 216 C 316.601562 212.023438 319.824219 208.800781 323.800781 208.800781 C 327.777344 208.800781 331 212.023438 331 216 "/>
<path style="fill:none;stroke-width:0.75;stroke-linecap:round;stroke-linejoin:round;stroke:rgb(0%,0%,0%);stroke-opacity:1;stroke-miterlimit:10;" d="M 334.601562 252 C 334.601562 256.800781 327.398438 256.800781 327.398438 252 C 327.398438 247.199219 334.601562 247.199219 334.601562 252 "/>
<path style="fill:none;stroke-width:0.75;stroke-linecap:round;stroke-linejoin:round;stroke:rgb(0%,0%,0%);stroke-opacity:1;stroke-miterlimit:10;" d="M 331.859375 265.777344 C 331.859375 270.578125 324.660156 270.578125 324.660156 265.777344 C 324.660156 260.976562 331.859375 260.976562 331.859375 265.777344 "/>
<path style="fill:none;stroke-width:0.75;stroke-linecap:round;stroke-linejoin:round;stroke:rgb(0%,0%,0%);stroke-opacity:1;stroke-miterlimit:10;" d="M 324.054688 277.457031 C 324.054688 282.253906 316.855469 282.253906 316.855469 277.457031 C 316.855469 272.65625 324.054688 272.65625 324.054688 277.457031 "/>
<path style="fill:none;stroke-width:0.75;stroke-linecap:round;stroke-linejoin:round;stroke:rgb(0%,0%,0%);stroke-opacity:1;stroke-miterlimit:10;" d="M 312.375 285.257812 C 312.375 290.058594 305.175781 290.058594 305.175781 285.257812 C 305.175781 280.460938 312.375 280.460938 312.375 285.257812 "/>
<path style="fill:none;stroke-width:0.75;stroke-linecap:round;stroke-linejoin:round;stroke:rgb(0%,0%,0%);stroke-opacity:1;stroke-miterlimit:10;" d="M 298.601562 288 C 298.601562 292.800781 291.398438 292.800781 291.398438 288 C 291.398438 283.199219 298.601562 283.199219 298.601562 288 "/>
<path style="fill:none;stroke-width:0.75;stroke-linecap:round;stroke-linejoin:round;stroke:rgb(0%,0%,0%);stroke-opacity:1;stroke-miterlimit:10;" d="M 284.824219 285.257812 C 284.824219 290.058594 277.625 290.058594 277.625 285.257812 C 277.625 280.460938 284.824219 280.460938 284.824219 285.257812 "/>
<path style="fill:none;stroke-width:0.75;stroke-linecap:round;stroke-linejoin:round;stroke:rgb(0%,0%,0%);stroke-opacity:1;stroke-miterlimit:10;" d="M 273.144531 277.457031 C 273.144531 282.253906 265.945312 282.253906 265.945312 277.457031 C 265.945312 272.65625 273.144531 272.65625 273.144531 277.457031 "/>
<path style="fill:none;stroke-width:0.75;stroke-linecap:round;stroke-linejoin:round;stroke:rgb(0%,0%,0%);stroke-opacity:1;stroke-miterlimit:10;" d="M 265.339844 265.777344 C 265.339844 270.578125 258.140625 270.578125 258.140625 265.777344 C 258.140625 260.976562 265.339844 260.976562 265.339844 265.777344 "/>
<path style="fill:none;stroke-width:0.75;stroke-linecap:round;stroke-linejoin:round;stroke:rgb(0%,0%,0%);stroke-opacity:1;stroke-miterlimit:10;" d="M 262.601562 252 C 262.601562 256.800781 255.398438 256.800781 255.398438 252 C 255.398438 247.199219 262.601562 247.199219 262.601562 252 "/>
</g>
</svg>
