<?xml version="1.0" encoding="UTF-8"?>
<svg xmlns="http://www.w3.org/2000/svg" xmlns:xlink="http://www.w3.org/1999/xlink" width="590pt" height="504pt" viewBox="0 0 590 504" version="1.1">
<g id="surface474">
<path style="fill:none;stroke-width:1.5;stroke-linecap:butt;stroke-linejoin:round;stroke:rgb(92.156863%,17.254902%,17.647059%);stroke-opacity:1;stroke-miterlimit:10;" d="M 99.699219 375.023438 L 477.699219 375.023438 "/>
<path style="fill:none;stroke-width:1.5;stroke-linecap:butt;stroke-linejoin:round;stroke:rgb(87.45098%,19.607843%,22.352941%);stroke-opacity:1;stroke-miterlimit:10;" d="M 99.699219 364.902344 L 452.5 364.902344 "/>
<path style="fill:none;stroke-width:1.5;stroke-linecap:butt;stroke-linejoin:round;stroke:rgb(85.098039%,20.392157%,24.705882%);stroke-opacity:1;stroke-miterlimit:10;" d="M 101.050781 354.785156 L 442.148438 354.785156 "/>
<path style="fill:none;stroke-width:1.5;stroke-linecap:butt;stroke-linejoin:round;stroke:rgb(68.627451%,27.843137%,40%);stroke-opacity:1;stroke-miterlimit:10;" d="M 101.050781 344.664062 L 368.351562 344.664062 "/>
<path style="fill:none;stroke-width:1.5;stroke-linecap:butt;stroke-linejoin:round;stroke:rgb(56.862745%,32.54902%,50.588235%);stroke-opacity:1;stroke-miterlimit:10;" d="M 101.050781 334.542969 L 317.050781 334.542969 "/>
<path style="fill:none;stroke-width:1.5;stroke-linecap:butt;stroke-linejoin:round;stroke:rgb(50.196078%,35.294118%,56.470588%);stroke-opacity:1;stroke-miterlimit:10;" d="M 254.050781 324.425781 L 442.148438 324.425781 "/>
<path style="fill:none;stroke-width:1.5;stroke-linecap:butt;stroke-linejoin:round;stroke:rgb(42.745098%,38.431373%,63.529412%);stroke-opacity:1;stroke-miterlimit:10;" d="M 101.050781 314.304688 L 254.050781 314.304688 "/>
<path style="fill:none;stroke-width:1.5;stroke-linecap:butt;stroke-linejoin:round;stroke:rgb(36.470588%,41.568627%,69.411765%);stroke-opacity:1;stroke-miterlimit:10;" d="M 317.5 314.304688 L 441.699219 314.304688 "/>
<path style="fill:none;stroke-width:1.5;stroke-linecap:butt;stroke-linejoin:round;stroke:rgb(33.72549%,42.352941%,71.764706%);stroke-opacity:1;stroke-miterlimit:10;" d="M 254.050781 304.1875 L 368.351562 304.1875 "/>
<path style="fill:none;stroke-width:1.5;stroke-linecap:butt;stroke-linejoin:round;stroke:rgb(24.705882%,46.27451%,80.392157%);stroke-opacity:1;stroke-miterlimit:10;" d="M 368.351562 334.542969 L 442.148438 334.542969 "/>
<path style="fill:none;stroke-width:1.5;stroke-linecap:butt;stroke-linejoin:round;stroke:rgb(22.352941%,47.45098%,82.352941%);stroke-opacity:1;stroke-miterlimit:10;" d="M 254.5 294.066406 L 317.5 294.066406 "/>
<path style="fill:none;stroke-width:1.5;stroke-linecap:butt;stroke-linejoin:round;stroke:rgb(18.823529%,49.019608%,85.490196%);stroke-opacity:1;stroke-miterlimit:10;" d="M 319.300781 283.945312 L 366.101562 283.945312 "/>
<path style="fill:none;stroke-width:1.5;stroke-linecap:butt;stroke-linejoin:round;stroke:rgb(17.254902%,49.411765%,87.058824%);stroke-opacity:1;stroke-miterlimit:10;" d="M 402.101562 344.664062 L 441.699219 344.664062 "/>
<path style="fill:none;stroke-width:1.5;stroke-linecap:butt;stroke-linejoin:round;stroke:rgb(16.470588%,49.803922%,87.843137%);stroke-opacity:1;stroke-miterlimit:10;" d="M 442.148438 304.1875 L 477.25 304.1875 "/>
<path style="fill:none;stroke-width:1.5;stroke-linecap:butt;stroke-linejoin:round;stroke:rgb(15.686275%,50.196078%,88.627451%);stroke-opacity:1;stroke-miterlimit:10;" d="M 369.699219 294.066406 L 402.101562 294.066406 "/>
<path style="fill:none;stroke-width:1.5;stroke-linecap:butt;stroke-linejoin:round;stroke:rgb(10.980392%,52.54902%,93.333333%);stroke-opacity:1;stroke-miterlimit:10;" d="M 86.648438 324.425781 L 98.351562 324.425781 "/>
<path style=" stroke:none;fill-rule:nonzero;fill:rgb(92.156863%,17.254902%,17.647059%);fill-opacity:1;" d="M 98.800781 378 L 100.601562 378 L 100.601562 372.046875 L 98.800781 372.046875 Z M 98.800781 378 "/>
<path style=" stroke:none;fill-rule:nonzero;fill:rgb(87.45098%,19.607843%,22.352941%);fill-opacity:1;" d="M 98.800781 367.878906 L 100.601562 367.878906 L 100.601562 361.925781 L 98.800781 361.925781 Z M 98.800781 367.878906 "/>
<path style=" stroke:none;fill-rule:nonzero;fill:rgb(85.098039%,20.392157%,24.705882%);fill-opacity:1;" d="M 100.601562 357.761719 L 101.5 357.761719 L 101.5 351.808594 L 100.601562 351.808594 Z M 100.601562 357.761719 "/>
<path style=" stroke:none;fill-rule:nonzero;fill:rgb(68.627451%,27.843137%,40%);fill-opacity:1;" d="M 100.601562 347.640625 L 101.5 347.640625 L 101.5 341.6875 L 100.601562 341.6875 Z M 100.601562 347.640625 "/>
<path style=" stroke:none;fill-rule:nonzero;fill:rgb(56.862745%,32.54902%,50.588235%);fill-opacity:1;" d="M 100.601562 337.519531 L 101.5 337.519531 L 101.5 331.566406 L 100.601562 331.566406 Z M 100.601562 337.519531 "/>
<path style=" stroke:none;fill-rule:nonzero;fill:rgb(50.196078%,35.294118%,56.470588%);fill-opacity:1;" d="M 253.601562 327.402344 L 254.5 327.402344 L 254.5 321.449219 L 253.601562 321.449219 Z M 253.601562 327.402344 "/>
<path style=" stroke:none;fill-rule:nonzero;fill:rgb(42.745098%,38.431373%,63.529412%);fill-opacity:1;" d="M 100.601562 317.28125 L 101.5 317.28125 L 101.5 311.328125 L 100.601562 311.328125 Z M 100.601562 317.28125 "/>
<path style=" stroke:none;fill-rule:nonzero;fill:rgb(36.470588%,41.568627%,69.411765%);fill-opacity:1;" d="M 316.601562 317.28125 L 318.402344 317.28125 L 318.402344 311.328125 L 316.601562 311.328125 Z M 316.601562 317.28125 "/>
<path style=" stroke:none;fill-rule:nonzero;fill:rgb(33.72549%,42.352941%,71.764706%);fill-opacity:1;" d="M 253.601562 307.164062 L 254.5 307.164062 L 254.5 301.210938 L 253.601562 301.210938 Z M 253.601562 307.164062 "/>
<path style=" stroke:none;fill-rule:nonzero;fill:rgb(24.705882%,46.27451%,80.392157%);fill-opacity:1;" d="M 367.898438 337.519531 L 368.796875 337.519531 L 368.796875 331.566406 L 367.898438 331.566406 Z M 367.898438 337.519531 "/>
<path style=" stroke:none;fill-rule:nonzero;fill:rgb(22.352941%,47.45098%,82.352941%);fill-opacity:1;" d="M 253.601562 297.042969 L 255.402344 297.042969 L 255.402344 291.089844 L 253.601562 291.089844 Z M 253.601562 297.042969 "/>
<path style=" stroke:none;fill-rule:nonzero;fill:rgb(18.823529%,49.019608%,85.490196%);fill-opacity:1;" d="M 318.398438 286.921875 L 320.199219 286.921875 L 320.199219 280.96875 L 318.398438 280.96875 Z M 318.398438 286.921875 "/>
<path style=" stroke:none;fill-rule:nonzero;fill:rgb(17.254902%,49.411765%,87.058824%);fill-opacity:1;" d="M 401.199219 347.640625 L 403 347.640625 L 403 341.6875 L 401.199219 341.6875 Z M 401.199219 347.640625 "/>
<path style=" stroke:none;fill-rule:nonzero;fill:rgb(16.470588%,49.803922%,87.843137%);fill-opacity:1;" d="M 441.699219 307.164062 L 442.597656 307.164062 L 442.597656 301.210938 L 441.699219 301.210938 Z M 441.699219 307.164062 "/>
<path style=" stroke:none;fill-rule:nonzero;fill:rgb(15.686275%,50.196078%,88.627451%);fill-opacity:1;" d="M 368.800781 297.042969 L 370.601562 297.042969 L 370.601562 291.089844 L 368.800781 291.089844 Z M 368.800781 297.042969 "/>
<path style=" stroke:none;fill-rule:nonzero;fill:rgb(10.980392%,52.54902%,93.333333%);fill-opacity:1;" d="M 86.199219 327.402344 L 87.097656 327.402344 L 87.097656 321.449219 L 86.199219 321.449219 Z M 86.199219 327.402344 "/>
<path style=" stroke:none;fill-rule:nonzero;fill:rgb(92.156863%,17.254902%,17.647059%);fill-opacity:1;" d="M 476.800781 378 L 478.601562 378 L 478.601562 372.046875 L 476.800781 372.046875 Z M 476.800781 378 "/>
<path style=" stroke:none;fill-rule:nonzero;fill:rgb(87.45098%,19.607843%,22.352941%);fill-opacity:1;" d="M 451.601562 367.878906 L 453.402344 367.878906 L 453.402344 361.925781 L 451.601562 361.925781 Z M 451.601562 367.878906 "/>
<path style=" stroke:none;fill-rule:nonzero;fill:rgb(85.098039%,20.392157%,24.705882%);fill-opacity:1;" d="M 441.699219 357.761719 L 442.597656 357.761719 L 442.597656 351.808594 L 441.699219 351.808594 Z M 441.699219 357.761719 "/>
<path style=" stroke:none;fill-rule:nonzero;fill:rgb(68.627451%,27.843137%,40%);fill-opacity:1;" d="M 367.898438 347.640625 L 368.796875 347.640625 L 368.796875 341.6875 L 367.898438 341.6875 Z M 367.898438 347.640625 "/>
<path style=" stroke:none;fill-rule:nonzero;fill:rgb(56.862745%,32.54902%,50.588235%);fill-opacity:1;" d="M 316.601562 337.519531 L 317.5 337.519531 L 317.5 331.566406 L 316.601562 331.566406 Z M 316.601562 337.519531 "/>
<path style=" stroke:none;fill-rule:nonzero;fill:rgb(50.196078%,35.294118%,56.470588%);fill-opacity:1;" d="M 441.699219 327.402344 L 442.597656 327.402344 L 442.597656 321.449219 L 441.699219 321.449219 Z M 441.699219 327.402344 "/>
<path style=" stroke:none;fill-rule:nonzero;fill:rgb(42.745098%,38.431373%,63.529412%);fill-opacity:1;" d="M 253.601562 317.28125 L 254.5 317.28125 L 254.5 311.328125 L 253.601562 311.328125 Z M 253.601562 317.28125 "/>
<path style=" stroke:none;fill-rule:nonzero;fill:rgb(36.470588%,41.568627%,69.411765%);fill-opacity:1;" d="M 440.800781 317.28125 L 442.601562 317.28125 L 442.601562 311.328125 L 440.800781 311.328125 Z M 440.800781 317.28125 "/>
<path style=" stroke:none;fill-rule:nonzero;fill:rgb(33.72549%,42.352941%,71.764706%);fill-opacity:1;" d="M 367.898438 307.164062 L 368.796875 307.164062 L 368.796875 301.210938 L 367.898438 301.210938 Z M 367.898438 307.164062 "/>
<path style=" stroke:none;fill-rule:nonzero;fill:rgb(24.705882%,46.27451%,80.392157%);fill-opacity:1;" d="M 441.699219 337.519531 L 442.597656 337.519531 L 442.597656 331.566406 L 441.699219 331.566406 Z M 441.699219 337.519531 "/>
<path style=" stroke:none;fill-rule:nonzero;fill:rgb(22.352941%,47.45098%,82.352941%);fill-opacity:1;" d="M 316.601562 297.042969 L 318.402344 297.042969 L 318.402344 291.089844 L 316.601562 291.089844 Z M 316.601562 297.042969 "/>
<path style=" stroke:none;fill-rule:nonzero;fill:rgb(18.823529%,49.019608%,85.490196%);fill-opacity:1;" d="M 365.199219 286.921875 L 367 286.921875 L 367 280.96875 L 365.199219 280.96875 Z M 365.199219 286.921875 "/>
<path style=" stroke:none;fill-rule:nonzero;fill:rgb(17.254902%,49.411765%,87.058824%);fill-opacity:1;" d="M 440.800781 347.640625 L 442.601562 347.640625 L 442.601562 341.6875 L 440.800781 341.6875 Z M 440.800781 347.640625 "/>
<path style=" stroke:none;fill-rule:nonzero;fill:rgb(16.470588%,49.803922%,87.843137%);fill-opacity:1;" d="M 476.800781 307.164062 L 477.699219 307.164062 L 477.699219 301.210938 L 476.800781 301.210938 Z M 476.800781 307.164062 "/>
<path style=" stroke:none;fill-rule:nonzero;fill:rgb(15.686275%,50.196078%,88.627451%);fill-opacity:1;" d="M 401.199219 297.042969 L 403 297.042969 L 403 291.089844 L 401.199219 291.089844 Z M 401.199219 297.042969 "/>
<path style=" stroke:none;fill-rule:nonzero;fill:rgb(10.980392%,52.54902%,93.333333%);fill-opacity:1;" d="M 97.898438 327.402344 L 98.796875 327.402344 L 98.796875 321.449219 L 97.898438 321.449219 Z M 97.898438 327.402344 "/>
</g>
</svg>
